%TF.GenerationSoftware,KiCad,Pcbnew,(6.0.1)*%
%TF.CreationDate,2022-12-13T21:33:40+01:00*%
%TF.ProjectId,SRD_Enhanced,5352445f-456e-4686-916e-6365642e6b69,rev?*%
%TF.SameCoordinates,Original*%
%TF.FileFunction,Soldermask,Top*%
%TF.FilePolarity,Negative*%
%FSLAX46Y46*%
G04 Gerber Fmt 4.6, Leading zero omitted, Abs format (unit mm)*
G04 Created by KiCad (PCBNEW (6.0.1)) date 2022-12-13 21:33:40*
%MOMM*%
%LPD*%
G01*
G04 APERTURE LIST*
G04 Aperture macros list*
%AMRoundRect*
0 Rectangle with rounded corners*
0 $1 Rounding radius*
0 $2 $3 $4 $5 $6 $7 $8 $9 X,Y pos of 4 corners*
0 Add a 4 corners polygon primitive as box body*
4,1,4,$2,$3,$4,$5,$6,$7,$8,$9,$2,$3,0*
0 Add four circle primitives for the rounded corners*
1,1,$1+$1,$2,$3*
1,1,$1+$1,$4,$5*
1,1,$1+$1,$6,$7*
1,1,$1+$1,$8,$9*
0 Add four rect primitives between the rounded corners*
20,1,$1+$1,$2,$3,$4,$5,0*
20,1,$1+$1,$4,$5,$6,$7,0*
20,1,$1+$1,$6,$7,$8,$9,0*
20,1,$1+$1,$8,$9,$2,$3,0*%
G04 Aperture macros list end*
%ADD10R,1.350000X0.950000*%
%ADD11R,1.000000X1.250000*%
%ADD12C,1.000000*%
%ADD13R,0.700000X1.600000*%
%ADD14R,1.200000X1.400000*%
%ADD15R,1.200000X2.200000*%
%ADD16R,1.600000X1.400000*%
%ADD17R,0.950000X1.350000*%
%ADD18RoundRect,0.250000X0.475000X-0.250000X0.475000X0.250000X-0.475000X0.250000X-0.475000X-0.250000X0*%
%ADD19RoundRect,0.250000X-0.450000X0.262500X-0.450000X-0.262500X0.450000X-0.262500X0.450000X0.262500X0*%
%ADD20RoundRect,0.250000X-0.262500X-0.450000X0.262500X-0.450000X0.262500X0.450000X-0.262500X0.450000X0*%
%ADD21R,1.500000X0.900000*%
%ADD22R,0.900000X1.500000*%
%ADD23R,0.900000X0.900000*%
%ADD24R,4.495800X1.295400*%
%ADD25R,3.911600X1.803400*%
%ADD26RoundRect,0.250000X-0.475000X0.250000X-0.475000X-0.250000X0.475000X-0.250000X0.475000X0.250000X0*%
%ADD27RoundRect,0.250000X0.262500X0.450000X-0.262500X0.450000X-0.262500X-0.450000X0.262500X-0.450000X0*%
%ADD28R,0.950000X1.250000*%
%ADD29R,3.200000X1.250000*%
%ADD30C,1.946000*%
G04 APERTURE END LIST*
D10*
%TO.C,IC10*%
X114150000Y-45350000D03*
X114150000Y-42150000D03*
X109350000Y-42150000D03*
X109350000Y-45350000D03*
%TD*%
D11*
%TO.C,S2*%
X127750000Y-68525000D03*
X127750000Y-76275000D03*
%TD*%
D10*
%TO.C,IC12*%
X134150000Y-45350000D03*
X134150000Y-42150000D03*
X129350000Y-42150000D03*
X129350000Y-45350000D03*
%TD*%
D12*
%TO.C,J4*%
X106820000Y-97900000D03*
X114800000Y-97900000D03*
D13*
X113950000Y-87400000D03*
X112850000Y-87400000D03*
X111750000Y-87400000D03*
X110650000Y-87400000D03*
X109550000Y-87400000D03*
X108450000Y-87400000D03*
X107350000Y-87400000D03*
X106250000Y-87400000D03*
X105150000Y-87400000D03*
D14*
X104000000Y-87900000D03*
D15*
X104000000Y-97500000D03*
X119500000Y-97500000D03*
D16*
X118600000Y-87900000D03*
%TD*%
D17*
%TO.C,IC16*%
X164650000Y-73900000D03*
X167850000Y-73900000D03*
X167850000Y-69100000D03*
X164650000Y-69100000D03*
%TD*%
%TO.C,IC15*%
X164650000Y-64150000D03*
X167850000Y-64150000D03*
X167850000Y-59350000D03*
X164650000Y-59350000D03*
%TD*%
D18*
%TO.C,C2*%
X139500000Y-59000000D03*
X139500000Y-57100000D03*
%TD*%
D10*
%TO.C,IC6*%
X74150000Y-45350000D03*
X74150000Y-42150000D03*
X69350000Y-42150000D03*
X69350000Y-45350000D03*
%TD*%
D11*
%TO.C,S1*%
X95750000Y-54625000D03*
X95750000Y-62375000D03*
%TD*%
D10*
%TO.C,IC9*%
X104150000Y-45350000D03*
X104150000Y-42150000D03*
X99350000Y-42150000D03*
X99350000Y-45350000D03*
%TD*%
%TO.C,IC7*%
X84150000Y-45350000D03*
X84150000Y-42150000D03*
X79350000Y-42150000D03*
X79350000Y-45350000D03*
%TD*%
D17*
%TO.C,IC3*%
X58850000Y-79100000D03*
X55650000Y-79100000D03*
X55650000Y-83900000D03*
X58850000Y-83900000D03*
%TD*%
D19*
%TO.C,R1*%
X98750000Y-91837500D03*
X98750000Y-93662500D03*
%TD*%
D20*
%TO.C,R3*%
X125675000Y-81500000D03*
X127500000Y-81500000D03*
%TD*%
D17*
%TO.C,IC5*%
X58850000Y-59100000D03*
X55650000Y-59100000D03*
X55650000Y-63900000D03*
X58850000Y-63900000D03*
%TD*%
D21*
%TO.C,IC2*%
X103000000Y-64990000D03*
X103000000Y-66260000D03*
X103000000Y-67530000D03*
X103000000Y-68800000D03*
X103000000Y-70070000D03*
X103000000Y-71340000D03*
X103000000Y-72610000D03*
X103000000Y-73880000D03*
X103000000Y-75150000D03*
X103000000Y-76420000D03*
X103000000Y-77690000D03*
X103000000Y-78960000D03*
X103000000Y-80230000D03*
X103000000Y-81500000D03*
D22*
X104765000Y-82750000D03*
X106035000Y-82750000D03*
X107305000Y-82750000D03*
X108575000Y-82750000D03*
X109845000Y-82750000D03*
X111115000Y-82750000D03*
X112385000Y-82750000D03*
X113655000Y-82750000D03*
X114925000Y-82750000D03*
X116195000Y-82750000D03*
X117465000Y-82750000D03*
X118735000Y-82750000D03*
D21*
X120500000Y-81500000D03*
X120500000Y-80230000D03*
X120500000Y-78960000D03*
X120500000Y-77690000D03*
X120500000Y-76420000D03*
X120500000Y-75150000D03*
X120500000Y-73880000D03*
X120500000Y-72610000D03*
X120500000Y-71340000D03*
X120500000Y-70070000D03*
X120500000Y-68800000D03*
X120500000Y-67530000D03*
X120500000Y-66260000D03*
X120500000Y-64990000D03*
D23*
X110250000Y-72710000D03*
X108850000Y-71310000D03*
X108850000Y-72710000D03*
X108850000Y-74110000D03*
X110250000Y-74110000D03*
X111650000Y-74110000D03*
X111650000Y-72710000D03*
X111650000Y-71310000D03*
X110250000Y-71310000D03*
%TD*%
D24*
%TO.C,J1*%
X136947912Y-75250000D03*
X136947912Y-72750000D03*
X136947912Y-70250000D03*
X136947912Y-67750000D03*
D25*
X143747911Y-78449999D03*
X143747911Y-64550001D03*
%TD*%
D10*
%TO.C,IC11*%
X124150000Y-45350000D03*
X124150000Y-42150000D03*
X119350000Y-42150000D03*
X119350000Y-45350000D03*
%TD*%
D26*
%TO.C,C1*%
X126500000Y-57050000D03*
X126500000Y-58950000D03*
%TD*%
D24*
%TO.C,J2*%
X87552088Y-57500000D03*
X87552088Y-60000000D03*
X87552088Y-62500000D03*
X87552088Y-65000000D03*
D25*
X80752089Y-54300001D03*
X80752089Y-68199999D03*
%TD*%
D17*
%TO.C,IC17*%
X164650000Y-83900000D03*
X167850000Y-83900000D03*
X167850000Y-79100000D03*
X164650000Y-79100000D03*
%TD*%
D27*
%TO.C,R2*%
X97825000Y-67525000D03*
X96000000Y-67525000D03*
%TD*%
D10*
%TO.C,IC13*%
X144150000Y-45350000D03*
X144150000Y-42150000D03*
X139350000Y-42150000D03*
X139350000Y-45350000D03*
%TD*%
D28*
%TO.C,IC1*%
X135300000Y-52100000D03*
X133000000Y-52100000D03*
X130700000Y-52100000D03*
D29*
X133000000Y-58900000D03*
%TD*%
D17*
%TO.C,IC4*%
X58850000Y-69100000D03*
X55650000Y-69100000D03*
X55650000Y-73900000D03*
X58850000Y-73900000D03*
%TD*%
D10*
%TO.C,IC8*%
X94150000Y-45350000D03*
X94150000Y-42150000D03*
X89350000Y-42150000D03*
X89350000Y-45350000D03*
%TD*%
%TO.C,IC14*%
X154150000Y-45350000D03*
X154150000Y-42150000D03*
X149350000Y-42150000D03*
X149350000Y-45350000D03*
%TD*%
D30*
%TO.C,J3*%
X115325000Y-51915000D03*
X108175000Y-51915000D03*
%TD*%
M02*
