%TF.GenerationSoftware,KiCad,Pcbnew,(6.0.1)*%
%TF.CreationDate,2022-12-13T21:33:40+01:00*%
%TF.ProjectId,SRD_Enhanced,5352445f-456e-4686-916e-6365642e6b69,rev?*%
%TF.SameCoordinates,Original*%
%TF.FileFunction,Legend,Bot*%
%TF.FilePolarity,Positive*%
%FSLAX46Y46*%
G04 Gerber Fmt 4.6, Leading zero omitted, Abs format (unit mm)*
G04 Created by KiCad (PCBNEW (6.0.1)) date 2022-12-13 21:33:40*
%MOMM*%
%LPD*%
G01*
G04 APERTURE LIST*
%ADD10C,0.300000*%
%ADD11C,0.150000*%
%ADD12C,0.100000*%
%ADD13C,0.200000*%
G04 APERTURE END LIST*
D10*
X123821428Y-100178571D02*
X123535714Y-101178571D01*
X123250000Y-100464285D01*
X122964285Y-101178571D01*
X122678571Y-100178571D01*
X122250000Y-100178571D02*
X121964285Y-101178571D01*
X121678571Y-100464285D01*
X121392857Y-101178571D01*
X121107142Y-100178571D01*
X120678571Y-100178571D02*
X120392857Y-101178571D01*
X120107142Y-100464285D01*
X119821428Y-101178571D01*
X119535714Y-100178571D01*
X118964285Y-101035714D02*
X118892857Y-101107142D01*
X118964285Y-101178571D01*
X119035714Y-101107142D01*
X118964285Y-101035714D01*
X118964285Y-101178571D01*
X118250000Y-101178571D02*
X118250000Y-100178571D01*
X118250000Y-100464285D02*
X118178571Y-100321428D01*
X118107142Y-100250000D01*
X117964285Y-100178571D01*
X117821428Y-100178571D01*
X116678571Y-101178571D02*
X116678571Y-100392857D01*
X116750000Y-100250000D01*
X116892857Y-100178571D01*
X117178571Y-100178571D01*
X117321428Y-100250000D01*
X116678571Y-101107142D02*
X116821428Y-101178571D01*
X117178571Y-101178571D01*
X117321428Y-101107142D01*
X117392857Y-100964285D01*
X117392857Y-100821428D01*
X117321428Y-100678571D01*
X117178571Y-100607142D01*
X116821428Y-100607142D01*
X116678571Y-100535714D01*
X115321428Y-101107142D02*
X115464285Y-101178571D01*
X115750000Y-101178571D01*
X115892857Y-101107142D01*
X115964285Y-101035714D01*
X116035714Y-100892857D01*
X116035714Y-100464285D01*
X115964285Y-100321428D01*
X115892857Y-100250000D01*
X115750000Y-100178571D01*
X115464285Y-100178571D01*
X115321428Y-100250000D01*
X114107142Y-101107142D02*
X114250000Y-101178571D01*
X114535714Y-101178571D01*
X114678571Y-101107142D01*
X114750000Y-100964285D01*
X114750000Y-100392857D01*
X114678571Y-100250000D01*
X114535714Y-100178571D01*
X114250000Y-100178571D01*
X114107142Y-100250000D01*
X114035714Y-100392857D01*
X114035714Y-100535714D01*
X114750000Y-100678571D01*
X113535714Y-100178571D02*
X113178571Y-101178571D01*
X112821428Y-100178571D01*
X112035714Y-101178571D02*
X112178571Y-101107142D01*
X112250000Y-101035714D01*
X112321428Y-100892857D01*
X112321428Y-100464285D01*
X112250000Y-100321428D01*
X112178571Y-100250000D01*
X112035714Y-100178571D01*
X111821428Y-100178571D01*
X111678571Y-100250000D01*
X111607142Y-100321428D01*
X111535714Y-100464285D01*
X111535714Y-100892857D01*
X111607142Y-101035714D01*
X111678571Y-101107142D01*
X111821428Y-101178571D01*
X112035714Y-101178571D01*
X110678571Y-101178571D02*
X110821428Y-101107142D01*
X110892857Y-100964285D01*
X110892857Y-99678571D01*
X109464285Y-100178571D02*
X109464285Y-101178571D01*
X110107142Y-100178571D02*
X110107142Y-100964285D01*
X110035714Y-101107142D01*
X109892857Y-101178571D01*
X109678571Y-101178571D01*
X109535714Y-101107142D01*
X109464285Y-101035714D01*
X108964285Y-100178571D02*
X108392857Y-100178571D01*
X108750000Y-99678571D02*
X108750000Y-100964285D01*
X108678571Y-101107142D01*
X108535714Y-101178571D01*
X108392857Y-101178571D01*
X107892857Y-101178571D02*
X107892857Y-100178571D01*
X107892857Y-99678571D02*
X107964285Y-99750000D01*
X107892857Y-99821428D01*
X107821428Y-99750000D01*
X107892857Y-99678571D01*
X107892857Y-99821428D01*
X106964285Y-101178571D02*
X107107142Y-101107142D01*
X107178571Y-101035714D01*
X107250000Y-100892857D01*
X107250000Y-100464285D01*
X107178571Y-100321428D01*
X107107142Y-100250000D01*
X106964285Y-100178571D01*
X106750000Y-100178571D01*
X106607142Y-100250000D01*
X106535714Y-100321428D01*
X106464285Y-100464285D01*
X106464285Y-100892857D01*
X106535714Y-101035714D01*
X106607142Y-101107142D01*
X106750000Y-101178571D01*
X106964285Y-101178571D01*
X105821428Y-100178571D02*
X105821428Y-101178571D01*
X105821428Y-100321428D02*
X105750000Y-100250000D01*
X105607142Y-100178571D01*
X105392857Y-100178571D01*
X105250000Y-100250000D01*
X105178571Y-100392857D01*
X105178571Y-101178571D01*
X104464285Y-101035714D02*
X104392857Y-101107142D01*
X104464285Y-101178571D01*
X104535714Y-101107142D01*
X104464285Y-101035714D01*
X104464285Y-101178571D01*
X103107142Y-101107142D02*
X103250000Y-101178571D01*
X103535714Y-101178571D01*
X103678571Y-101107142D01*
X103750000Y-101035714D01*
X103821428Y-100892857D01*
X103821428Y-100464285D01*
X103750000Y-100321428D01*
X103678571Y-100250000D01*
X103535714Y-100178571D01*
X103250000Y-100178571D01*
X103107142Y-100250000D01*
X102250000Y-101178571D02*
X102392857Y-101107142D01*
X102464285Y-101035714D01*
X102535714Y-100892857D01*
X102535714Y-100464285D01*
X102464285Y-100321428D01*
X102392857Y-100250000D01*
X102250000Y-100178571D01*
X102035714Y-100178571D01*
X101892857Y-100250000D01*
X101821428Y-100321428D01*
X101750000Y-100464285D01*
X101750000Y-100892857D01*
X101821428Y-101035714D01*
X101892857Y-101107142D01*
X102035714Y-101178571D01*
X102250000Y-101178571D01*
X101107142Y-101178571D02*
X101107142Y-100178571D01*
X101107142Y-100321428D02*
X101035714Y-100250000D01*
X100892857Y-100178571D01*
X100678571Y-100178571D01*
X100535714Y-100250000D01*
X100464285Y-100392857D01*
X100464285Y-101178571D01*
X100464285Y-100392857D02*
X100392857Y-100250000D01*
X100250000Y-100178571D01*
X100035714Y-100178571D01*
X99892857Y-100250000D01*
X99821428Y-100392857D01*
X99821428Y-101178571D01*
D11*
X113226190Y-55202380D02*
X113702380Y-55202380D01*
X113750000Y-55678571D01*
X113702380Y-55630952D01*
X113607142Y-55583333D01*
X113369047Y-55583333D01*
X113273809Y-55630952D01*
X113226190Y-55678571D01*
X113178571Y-55773809D01*
X113178571Y-56011904D01*
X113226190Y-56107142D01*
X113273809Y-56154761D01*
X113369047Y-56202380D01*
X113607142Y-56202380D01*
X113702380Y-56154761D01*
X113750000Y-56107142D01*
X112892857Y-55202380D02*
X112559523Y-56202380D01*
X112226190Y-55202380D01*
X110607142Y-56202380D02*
X111178571Y-56202380D01*
X110892857Y-56202380D02*
X110892857Y-55202380D01*
X110988095Y-55345238D01*
X111083333Y-55440476D01*
X111178571Y-55488095D01*
X110226190Y-55916666D02*
X109750000Y-55916666D01*
X110321428Y-56202380D02*
X109988095Y-55202380D01*
X109654761Y-56202380D01*
D12*
%TO.C,J3*%
X107850000Y-54275000D02*
X107850000Y-54275000D01*
X107850000Y-53775000D02*
X107850000Y-54275000D01*
X115650000Y-50275000D02*
X115650000Y-50275000D01*
D13*
X113150000Y-49375000D02*
X113150000Y-49375000D01*
D12*
X107850000Y-50275000D02*
X109500000Y-50275000D01*
X115650000Y-50275000D02*
X114000000Y-50275000D01*
X107850000Y-54275000D02*
X115650000Y-54275000D01*
X115650000Y-54275000D02*
X115650000Y-54275000D01*
X107850000Y-53775000D02*
X107850000Y-53775000D01*
X114000000Y-50275000D02*
X115650000Y-50275000D01*
X115650000Y-54275000D02*
X107850000Y-54275000D01*
X107850000Y-50275000D02*
X107850000Y-50275000D01*
X115650000Y-53775000D02*
X115650000Y-53775000D01*
X115650000Y-54275000D02*
X115650000Y-53775000D01*
X115650000Y-54275000D02*
X115650000Y-54275000D01*
X114000000Y-50275000D02*
X114000000Y-50275000D01*
X107850000Y-54275000D02*
X107850000Y-54275000D01*
D13*
X113050000Y-49375000D02*
X113050000Y-49375000D01*
D12*
X107850000Y-54275000D02*
X107850000Y-53775000D01*
X115650000Y-53775000D02*
X115650000Y-54275000D01*
X109500000Y-50275000D02*
X109500000Y-50275000D01*
D13*
X113150000Y-49375000D02*
X113150000Y-49375000D01*
D12*
X109500000Y-50275000D02*
X107850000Y-50275000D01*
D13*
X113150000Y-49375000D02*
G75*
G03*
X113050000Y-49375000I-50000J0D01*
G01*
X113050000Y-49375000D02*
G75*
G03*
X113150000Y-49375000I50000J0D01*
G01*
X113050000Y-49375000D02*
G75*
G03*
X113150000Y-49375000I50000J0D01*
G01*
%TO.C,G\u002A\u002A\u002A*%
G36*
X139949285Y-94393765D02*
G01*
X139994952Y-94408996D01*
X140085634Y-94428975D01*
X140206199Y-94444985D01*
X140362673Y-94457355D01*
X140561080Y-94466417D01*
X140807444Y-94472500D01*
X141107789Y-94475935D01*
X141468139Y-94477052D01*
X142565863Y-94477244D01*
X142664206Y-94568076D01*
X142691298Y-94602154D01*
X142749165Y-94688636D01*
X142829229Y-94815741D01*
X142926008Y-94974103D01*
X143034021Y-95154358D01*
X143147787Y-95347141D01*
X143261824Y-95543086D01*
X143370650Y-95732828D01*
X143468786Y-95907004D01*
X143550749Y-96056247D01*
X143611058Y-96171194D01*
X143644231Y-96242478D01*
X143645636Y-96248254D01*
X143639534Y-96260521D01*
X143615116Y-96270387D01*
X143566416Y-96278102D01*
X143487464Y-96283914D01*
X143372293Y-96288074D01*
X143214935Y-96290829D01*
X143009423Y-96292430D01*
X142749788Y-96293125D01*
X142430062Y-96293163D01*
X142232620Y-96292977D01*
X141947164Y-96292245D01*
X141716758Y-96290715D01*
X141534481Y-96288077D01*
X141393414Y-96284018D01*
X141286637Y-96278225D01*
X141207232Y-96270385D01*
X141148277Y-96260186D01*
X141102855Y-96247315D01*
X141064044Y-96231461D01*
X141039191Y-96219255D01*
X140937229Y-96156732D01*
X140859408Y-96091597D01*
X140843575Y-96070816D01*
X140794780Y-95996024D01*
X140723360Y-95879793D01*
X140634438Y-95731056D01*
X140533134Y-95558743D01*
X140424569Y-95371788D01*
X140313864Y-95179122D01*
X140206141Y-94989677D01*
X140106520Y-94812384D01*
X140020123Y-94656177D01*
X139952070Y-94529987D01*
X139907483Y-94442745D01*
X139891482Y-94403384D01*
X139901984Y-94388997D01*
X139949285Y-94393765D01*
G37*
G36*
X116311532Y-95022514D02*
G01*
X116324866Y-95354345D01*
X116293897Y-95644138D01*
X116218781Y-95890361D01*
X116099673Y-96091484D01*
X115936728Y-96245976D01*
X115730104Y-96352304D01*
X115644921Y-96371653D01*
X115499866Y-96385369D01*
X115326474Y-96389120D01*
X115144816Y-96383122D01*
X114974961Y-96367589D01*
X114836978Y-96342737D01*
X114785532Y-96327879D01*
X114647734Y-96279417D01*
X114488419Y-96215196D01*
X114332648Y-96145042D01*
X114118603Y-96034311D01*
X113689818Y-95764568D01*
X113260376Y-95431379D01*
X112831815Y-95036440D01*
X112405670Y-94581448D01*
X111983478Y-94068100D01*
X111566775Y-93498093D01*
X111157098Y-92873124D01*
X110755984Y-92194889D01*
X110478079Y-91687177D01*
X110223365Y-91188288D01*
X110010287Y-90729491D01*
X109837206Y-90306422D01*
X109702483Y-89914722D01*
X109632490Y-89654260D01*
X111019971Y-89654260D01*
X111036306Y-89871688D01*
X111094389Y-90135663D01*
X111194325Y-90445295D01*
X111336216Y-90799695D01*
X111417184Y-90977820D01*
X111540963Y-91231303D01*
X111688561Y-91518712D01*
X111853643Y-91828201D01*
X112029873Y-92147926D01*
X112210916Y-92466043D01*
X112390437Y-92770706D01*
X112566553Y-93050848D01*
X112784756Y-93367811D01*
X113010513Y-93666929D01*
X113237752Y-93941274D01*
X113460400Y-94183920D01*
X113672384Y-94387937D01*
X113867629Y-94546399D01*
X114040064Y-94652378D01*
X114100700Y-94680325D01*
X114303418Y-94747789D01*
X114477726Y-94763516D01*
X114619536Y-94728292D01*
X114724765Y-94642904D01*
X114789326Y-94508138D01*
X114797388Y-94471991D01*
X114804216Y-94293234D01*
X114769509Y-94066057D01*
X114693855Y-93792344D01*
X114577845Y-93473980D01*
X114422067Y-93112848D01*
X114227112Y-92710835D01*
X114014642Y-92301267D01*
X113691680Y-91713215D01*
X113379425Y-91187724D01*
X113078104Y-90725081D01*
X112787946Y-90325575D01*
X112509176Y-89989491D01*
X112242025Y-89717119D01*
X111986719Y-89508745D01*
X111743486Y-89364656D01*
X111512554Y-89285141D01*
X111370045Y-89267811D01*
X111220422Y-89290154D01*
X111112132Y-89362603D01*
X111045281Y-89484268D01*
X111019971Y-89654260D01*
X109632490Y-89654260D01*
X109604480Y-89550029D01*
X109541559Y-89207981D01*
X109512080Y-88884218D01*
X109508055Y-88749328D01*
X109513429Y-88509764D01*
X109540153Y-88315875D01*
X109591567Y-88155285D01*
X109671009Y-88015621D01*
X109781817Y-87884509D01*
X109882984Y-87790618D01*
X110004739Y-87710302D01*
X110141867Y-87660522D01*
X110310780Y-87635685D01*
X110527893Y-87630196D01*
X110614803Y-87633347D01*
X110945124Y-87684503D01*
X111290426Y-87796055D01*
X111648069Y-87965590D01*
X112015411Y-88190697D01*
X112389813Y-88468964D01*
X112768634Y-88797980D01*
X113149235Y-89175332D01*
X113528974Y-89598609D01*
X113905211Y-90065399D01*
X114275305Y-90573291D01*
X114636618Y-91119872D01*
X114986507Y-91702731D01*
X115055090Y-91824725D01*
X115184478Y-92063801D01*
X115321878Y-92327158D01*
X115461558Y-92603078D01*
X115597788Y-92879846D01*
X115724834Y-93145747D01*
X115836965Y-93389065D01*
X115928449Y-93598084D01*
X115993555Y-93761088D01*
X116004155Y-93790104D01*
X116151333Y-94238862D01*
X116164870Y-94293234D01*
X116253740Y-94650176D01*
X116311532Y-95022514D01*
G37*
G36*
X83211002Y-92301243D02*
G01*
X83529927Y-92303600D01*
X84715019Y-92313785D01*
X84899540Y-92400317D01*
X84977668Y-92441458D01*
X85101667Y-92521569D01*
X85198070Y-92600858D01*
X85230604Y-92641181D01*
X85292726Y-92731443D01*
X85373949Y-92857403D01*
X85468235Y-93008888D01*
X85569543Y-93175723D01*
X85671835Y-93347736D01*
X85769071Y-93514751D01*
X85855212Y-93666595D01*
X85924218Y-93793093D01*
X85970051Y-93884072D01*
X85986671Y-93929358D01*
X85975720Y-93939535D01*
X85928868Y-93927952D01*
X85927312Y-93927339D01*
X85876293Y-93920570D01*
X85767596Y-93913512D01*
X85608878Y-93906430D01*
X85407797Y-93899587D01*
X85172010Y-93893247D01*
X84909177Y-93887674D01*
X84626954Y-93883131D01*
X83382842Y-93866190D01*
X83244490Y-93767101D01*
X83226725Y-93753766D01*
X83173768Y-93705497D01*
X83116903Y-93638476D01*
X83050769Y-93544755D01*
X82970007Y-93416388D01*
X82869254Y-93245428D01*
X82743151Y-93023928D01*
X82693505Y-92935725D01*
X82591720Y-92754164D01*
X82502812Y-92594600D01*
X82431696Y-92465907D01*
X82383287Y-92376959D01*
X82362499Y-92336630D01*
X82361838Y-92333409D01*
X82373772Y-92322501D01*
X82412917Y-92313959D01*
X82484823Y-92307625D01*
X82595036Y-92303344D01*
X82749105Y-92300958D01*
X82952578Y-92300310D01*
X83211002Y-92301243D01*
G37*
G36*
X140759522Y-92006027D02*
G01*
X140973263Y-92009808D01*
X141145122Y-92017280D01*
X141281535Y-92029277D01*
X141388934Y-92046631D01*
X141473755Y-92070176D01*
X141542431Y-92100743D01*
X141601396Y-92139167D01*
X141657084Y-92186279D01*
X141715929Y-92242912D01*
X141749780Y-92280290D01*
X141837032Y-92397568D01*
X141948797Y-92568820D01*
X142082624Y-92790209D01*
X142236065Y-93057899D01*
X142312630Y-93193637D01*
X142447099Y-93426421D01*
X142559614Y-93610928D01*
X142655451Y-93754279D01*
X142739885Y-93863592D01*
X142818191Y-93945988D01*
X142895646Y-94008585D01*
X142977526Y-94058504D01*
X143010115Y-94075025D01*
X143049974Y-94091020D01*
X143098541Y-94103896D01*
X143162983Y-94114143D01*
X143250469Y-94122252D01*
X143368168Y-94128714D01*
X143523249Y-94134017D01*
X143722878Y-94138654D01*
X143974226Y-94143113D01*
X144284460Y-94147885D01*
X144526598Y-94152096D01*
X144784588Y-94157990D01*
X145016467Y-94164772D01*
X145214244Y-94172140D01*
X145369932Y-94179791D01*
X145475541Y-94187423D01*
X145523082Y-94194733D01*
X145568490Y-94215671D01*
X145624125Y-94245045D01*
X145678213Y-94280438D01*
X145733835Y-94325995D01*
X145794071Y-94385861D01*
X145862002Y-94464182D01*
X145940706Y-94565104D01*
X146033264Y-94692772D01*
X146142757Y-94851332D01*
X146272263Y-95044930D01*
X146424864Y-95277709D01*
X146603639Y-95553818D01*
X146811668Y-95877400D01*
X147052032Y-96252601D01*
X147099600Y-96326918D01*
X145803209Y-96326918D01*
X145616624Y-96326732D01*
X145262302Y-96325045D01*
X144970385Y-96321546D01*
X144738394Y-96316167D01*
X144563847Y-96308840D01*
X144444266Y-96299499D01*
X144377170Y-96288075D01*
X144307189Y-96262724D01*
X144222598Y-96216792D01*
X144137683Y-96149691D01*
X144047246Y-96055272D01*
X143946092Y-95927386D01*
X143829023Y-95759884D01*
X143690841Y-95546618D01*
X143526351Y-95281437D01*
X143427002Y-95119934D01*
X143309330Y-94930958D01*
X143203880Y-94764116D01*
X143116147Y-94628004D01*
X143051622Y-94531219D01*
X143015799Y-94482358D01*
X142987421Y-94454350D01*
X142899818Y-94384414D01*
X142798114Y-94317208D01*
X142649480Y-94229519D01*
X141361313Y-94213004D01*
X140073147Y-94196489D01*
X139907997Y-94108737D01*
X139846063Y-94072948D01*
X139736428Y-93997604D01*
X139655162Y-93927073D01*
X139642143Y-93910884D01*
X139591705Y-93836241D01*
X139515957Y-93715224D01*
X139419619Y-93555706D01*
X139307410Y-93365555D01*
X139184048Y-93152642D01*
X139054252Y-92924838D01*
X138541027Y-92016515D01*
X139900239Y-92007886D01*
X140180664Y-92006210D01*
X140497467Y-92005105D01*
X140759522Y-92006027D01*
G37*
G36*
X137483252Y-90103941D02*
G01*
X137554616Y-90125271D01*
X137570745Y-90129186D01*
X137657437Y-90139506D01*
X137803592Y-90149404D01*
X138004404Y-90158679D01*
X138255067Y-90167131D01*
X138550777Y-90174561D01*
X138886727Y-90180768D01*
X140111491Y-90199870D01*
X140228899Y-90289487D01*
X140236744Y-90295769D01*
X140294374Y-90356051D01*
X140367489Y-90454964D01*
X140459458Y-90597693D01*
X140573650Y-90789425D01*
X140713433Y-91035345D01*
X140770070Y-91136868D01*
X140869668Y-91316880D01*
X140955083Y-91473179D01*
X141021748Y-91597308D01*
X141065095Y-91680811D01*
X141080559Y-91715230D01*
X141051963Y-91720159D01*
X140964409Y-91724460D01*
X140825203Y-91727750D01*
X140641737Y-91729941D01*
X140421409Y-91730947D01*
X140171611Y-91730682D01*
X139899740Y-91729060D01*
X139871543Y-91728825D01*
X139565710Y-91726135D01*
X139318007Y-91723380D01*
X139121113Y-91720095D01*
X138967706Y-91715812D01*
X138850465Y-91710064D01*
X138762069Y-91702385D01*
X138695196Y-91692306D01*
X138642526Y-91679362D01*
X138596737Y-91663086D01*
X138550507Y-91643010D01*
X138467186Y-91600545D01*
X138365270Y-91531219D01*
X138266537Y-91439703D01*
X138164806Y-91318440D01*
X138053902Y-91159876D01*
X137927644Y-90956454D01*
X137779855Y-90700621D01*
X137753931Y-90654658D01*
X137656401Y-90481092D01*
X137572145Y-90330143D01*
X137505986Y-90210525D01*
X137462753Y-90130950D01*
X137447269Y-90100131D01*
X137448051Y-90099039D01*
X137483252Y-90103941D01*
G37*
G36*
X110049225Y-91969030D02*
G01*
X110061472Y-91991123D01*
X110332812Y-92480799D01*
X110595300Y-92954872D01*
X110847151Y-93410099D01*
X111086579Y-93843237D01*
X111311799Y-94251044D01*
X111521024Y-94630278D01*
X111712470Y-94977695D01*
X111884350Y-95290055D01*
X112034879Y-95564113D01*
X112162272Y-95796628D01*
X112264742Y-95984357D01*
X112340504Y-96124058D01*
X112387773Y-96212487D01*
X112404762Y-96246404D01*
X112404154Y-96252320D01*
X112390203Y-96262118D01*
X112355295Y-96270276D01*
X112294420Y-96276934D01*
X112202565Y-96282229D01*
X112074720Y-96286303D01*
X111905873Y-96289292D01*
X111691012Y-96291338D01*
X111425127Y-96292579D01*
X111103206Y-96293155D01*
X110720237Y-96293204D01*
X109025032Y-96292519D01*
X108595644Y-95511073D01*
X108593842Y-95507794D01*
X108480053Y-95300456D01*
X108376886Y-95112004D01*
X108288590Y-94950234D01*
X108219412Y-94822943D01*
X108173599Y-94737929D01*
X108155398Y-94702986D01*
X108164881Y-94699055D01*
X108229026Y-94692355D01*
X108347014Y-94685894D01*
X108511140Y-94679930D01*
X108713700Y-94674724D01*
X108946991Y-94670536D01*
X109203308Y-94667627D01*
X110262074Y-94658908D01*
X108485970Y-91455007D01*
X108455258Y-91399606D01*
X108217064Y-90969914D01*
X107986069Y-90553186D01*
X107764531Y-90153495D01*
X107554707Y-89774915D01*
X107358854Y-89421520D01*
X107179230Y-89097384D01*
X107018093Y-88806580D01*
X106877699Y-88553181D01*
X106760307Y-88341263D01*
X106668173Y-88174898D01*
X106603556Y-88058161D01*
X106568711Y-87995124D01*
X106427557Y-87739142D01*
X107704368Y-87739142D01*
X110049225Y-91969030D01*
G37*
G36*
X120135810Y-94547481D02*
G01*
X120265490Y-94915152D01*
X120382072Y-95246265D01*
X120484263Y-95537153D01*
X120570771Y-95784146D01*
X120640305Y-95983576D01*
X120691571Y-96131774D01*
X120723279Y-96225071D01*
X120734135Y-96259798D01*
X120721333Y-96268246D01*
X120647981Y-96279175D01*
X120510623Y-96286842D01*
X120310478Y-96291190D01*
X120048764Y-96292162D01*
X119363394Y-96290435D01*
X117459368Y-93767101D01*
X118653251Y-93767101D01*
X118669766Y-93783615D01*
X118686281Y-93767101D01*
X118669766Y-93750586D01*
X118653251Y-93767101D01*
X117459368Y-93767101D01*
X116159493Y-92044425D01*
X115898178Y-91698065D01*
X115551885Y-91238913D01*
X115217970Y-90795995D01*
X114898544Y-90372117D01*
X114595716Y-89970088D01*
X114311597Y-89592711D01*
X114048296Y-89242795D01*
X113807924Y-88923144D01*
X113592592Y-88636567D01*
X113404408Y-88385868D01*
X113245484Y-88173854D01*
X113117929Y-88003332D01*
X113023853Y-87877108D01*
X112965368Y-87797988D01*
X112944582Y-87768779D01*
X112945776Y-87766358D01*
X112989294Y-87757528D01*
X113088535Y-87750087D01*
X113235261Y-87744383D01*
X113421232Y-87740762D01*
X113638210Y-87739572D01*
X114342848Y-87740001D01*
X116486747Y-90729070D01*
X116562132Y-90834159D01*
X116843407Y-91226011D01*
X117113203Y-91601480D01*
X117369069Y-91957172D01*
X117608551Y-92289693D01*
X117829196Y-92595650D01*
X118028553Y-92871650D01*
X118204168Y-93114299D01*
X118353588Y-93320204D01*
X118474361Y-93485972D01*
X118564034Y-93608209D01*
X118620154Y-93683522D01*
X118640269Y-93708517D01*
X118639107Y-93703695D01*
X118620071Y-93650256D01*
X118579150Y-93541129D01*
X118517978Y-93380535D01*
X118438187Y-93172695D01*
X118341412Y-92921830D01*
X118229284Y-92632163D01*
X118103437Y-92307915D01*
X117965505Y-91953306D01*
X117817120Y-91572558D01*
X117659915Y-91169894D01*
X117495525Y-90749533D01*
X117434515Y-90593613D01*
X117272272Y-90178556D01*
X117117647Y-89782382D01*
X116972289Y-89409351D01*
X116837849Y-89063726D01*
X116715979Y-88749767D01*
X116608329Y-88471736D01*
X116516549Y-88233895D01*
X116442291Y-88040505D01*
X116387206Y-87895828D01*
X116352945Y-87804124D01*
X116341157Y-87769656D01*
X116341746Y-87768283D01*
X116381678Y-87758732D01*
X116478615Y-87750690D01*
X116624580Y-87744510D01*
X116811594Y-87740543D01*
X117031680Y-87739142D01*
X117722204Y-87739142D01*
X117771118Y-87879519D01*
X117773794Y-87887150D01*
X117796842Y-87952370D01*
X117840262Y-88074945D01*
X117902708Y-88251078D01*
X117982831Y-88476972D01*
X118079283Y-88748830D01*
X118190719Y-89062857D01*
X118315789Y-89415254D01*
X118453147Y-89802225D01*
X118601444Y-90219973D01*
X118759334Y-90664702D01*
X118925469Y-91132614D01*
X119098502Y-91619913D01*
X119277084Y-92122802D01*
X119336155Y-92289169D01*
X119511946Y-92784597D01*
X119681100Y-93261810D01*
X119842323Y-93717141D01*
X119859992Y-93767101D01*
X119994324Y-94146921D01*
X120135810Y-94547481D01*
G37*
G36*
X96134694Y-94931958D02*
G01*
X96160178Y-95266447D01*
X96143982Y-95561322D01*
X96085518Y-95813196D01*
X95984202Y-96018685D01*
X95981200Y-96023096D01*
X95863798Y-96170258D01*
X95737463Y-96271162D01*
X95579949Y-96343694D01*
X95533993Y-96357005D01*
X95387339Y-96379666D01*
X95205749Y-96389447D01*
X95010266Y-96386389D01*
X94821932Y-96370532D01*
X94661790Y-96341918D01*
X94613152Y-96328487D01*
X94417064Y-96257671D01*
X94190336Y-96155363D01*
X93948811Y-96029659D01*
X93708331Y-95888652D01*
X93484737Y-95740440D01*
X93376548Y-95658860D01*
X93185423Y-95499384D01*
X92970756Y-95305859D01*
X92743241Y-95088829D01*
X92513572Y-94858836D01*
X92292443Y-94626420D01*
X92090546Y-94402124D01*
X91918575Y-94196489D01*
X91867882Y-94132002D01*
X91662024Y-93856804D01*
X91439359Y-93540943D01*
X91209618Y-93199133D01*
X90982532Y-92846088D01*
X90767830Y-92496522D01*
X90575244Y-92165150D01*
X90437148Y-91915477D01*
X90127007Y-91320042D01*
X89867632Y-90766768D01*
X89659008Y-90255595D01*
X89501120Y-89786467D01*
X89481452Y-89708076D01*
X90853225Y-89708076D01*
X90879003Y-89936564D01*
X90948685Y-90211923D01*
X91062374Y-90534559D01*
X91220172Y-90904877D01*
X91422181Y-91323284D01*
X91668503Y-91790184D01*
X91858844Y-92132780D01*
X92159174Y-92647865D01*
X92443869Y-93102425D01*
X92714399Y-93498350D01*
X92972236Y-93837529D01*
X93218851Y-94121853D01*
X93455714Y-94353210D01*
X93684298Y-94533492D01*
X93906073Y-94664588D01*
X93998087Y-94704123D01*
X94162859Y-94750760D01*
X94313231Y-94765016D01*
X94429508Y-94743907D01*
X94520792Y-94685995D01*
X94600375Y-94570846D01*
X94635854Y-94409569D01*
X94627450Y-94200951D01*
X94575383Y-93943779D01*
X94503614Y-93710892D01*
X94389117Y-93410264D01*
X94243128Y-93075008D01*
X94070714Y-92714128D01*
X93876940Y-92336629D01*
X93666874Y-91951515D01*
X93445581Y-91567790D01*
X93218128Y-91194460D01*
X92989582Y-90840529D01*
X92765009Y-90515002D01*
X92549475Y-90226883D01*
X92348048Y-89985176D01*
X92169963Y-89800019D01*
X91951987Y-89608487D01*
X91737260Y-89455623D01*
X91532253Y-89344822D01*
X91343435Y-89279480D01*
X91177276Y-89262993D01*
X91040247Y-89298756D01*
X91038294Y-89299787D01*
X90932973Y-89390094D01*
X90871249Y-89526055D01*
X90853225Y-89708076D01*
X89481452Y-89708076D01*
X89393952Y-89359324D01*
X89337489Y-88974108D01*
X89331713Y-88630761D01*
X89376611Y-88329225D01*
X89472165Y-88069441D01*
X89490372Y-88034680D01*
X89585065Y-87894373D01*
X89704015Y-87790064D01*
X89868097Y-87702404D01*
X89951674Y-87672906D01*
X90140400Y-87638181D01*
X90359563Y-87628174D01*
X90589123Y-87643277D01*
X90809038Y-87683887D01*
X90840700Y-87692484D01*
X91040330Y-87762087D01*
X91271178Y-87863389D01*
X91516333Y-87987903D01*
X91758884Y-88127141D01*
X91981920Y-88272613D01*
X92082745Y-88348325D01*
X92258394Y-88495076D01*
X92459671Y-88676525D01*
X92676891Y-88882997D01*
X92900371Y-89104819D01*
X93120428Y-89332319D01*
X93327377Y-89555822D01*
X93511536Y-89765655D01*
X93663221Y-89952146D01*
X93716600Y-90022076D01*
X94011093Y-90429267D01*
X94314505Y-90882032D01*
X94617823Y-91365625D01*
X94912032Y-91865299D01*
X95188118Y-92366310D01*
X95437066Y-92853910D01*
X95627643Y-93265552D01*
X95814002Y-93724650D01*
X95961020Y-94157674D01*
X96027864Y-94409569D01*
X96068112Y-94561238D01*
X96134694Y-94931958D01*
G37*
G36*
X137863070Y-92004522D02*
G01*
X138134494Y-92494022D01*
X138397144Y-92967857D01*
X138649230Y-93422790D01*
X138888961Y-93855582D01*
X139114546Y-94262994D01*
X139324195Y-94641789D01*
X139516116Y-94988728D01*
X139688519Y-95300573D01*
X139839612Y-95574086D01*
X139967605Y-95806028D01*
X140070708Y-95993162D01*
X140147129Y-96132249D01*
X140195077Y-96220050D01*
X140212761Y-96253328D01*
X140208739Y-96266255D01*
X140175100Y-96277408D01*
X140103567Y-96284621D01*
X139987109Y-96288268D01*
X139818697Y-96288722D01*
X139591301Y-96286358D01*
X138953195Y-96277374D01*
X138125915Y-94783191D01*
X137298634Y-93289008D01*
X136993108Y-93288588D01*
X136895194Y-93289371D01*
X136774934Y-93295488D01*
X136708540Y-93308510D01*
X136688441Y-93329454D01*
X136693844Y-93356809D01*
X136714180Y-93443281D01*
X136748069Y-93581786D01*
X136793859Y-93765732D01*
X136849897Y-93988526D01*
X136914532Y-94243573D01*
X136986110Y-94524282D01*
X137062980Y-94824058D01*
X137436659Y-96277374D01*
X136774992Y-96286335D01*
X136645688Y-96287821D01*
X136434276Y-96288417D01*
X136278371Y-96285592D01*
X136170992Y-96279018D01*
X136105157Y-96268365D01*
X136073886Y-96253305D01*
X136067808Y-96237965D01*
X136046362Y-96165599D01*
X136012143Y-96040762D01*
X135966966Y-95870676D01*
X135912649Y-95662566D01*
X135851007Y-95423653D01*
X135783858Y-95161162D01*
X135713017Y-94882315D01*
X135640302Y-94594335D01*
X135567529Y-94304446D01*
X135496514Y-94019871D01*
X135429074Y-93747832D01*
X135367025Y-93495554D01*
X135312185Y-93270259D01*
X135266369Y-93079170D01*
X135231395Y-92929510D01*
X135209078Y-92828503D01*
X135201235Y-92783372D01*
X135187820Y-92768646D01*
X135130837Y-92728446D01*
X135044343Y-92675876D01*
X134948060Y-92618185D01*
X134599845Y-92370769D01*
X134253524Y-92066448D01*
X133914932Y-91712205D01*
X133589903Y-91315020D01*
X133284270Y-90881875D01*
X133003867Y-90419752D01*
X132754528Y-89935631D01*
X132696651Y-89810367D01*
X132643906Y-89686385D01*
X134024992Y-89686385D01*
X134051089Y-89848803D01*
X134118767Y-90051267D01*
X134228581Y-90298960D01*
X134246335Y-90335388D01*
X134428302Y-90667192D01*
X134627441Y-90962558D01*
X134837713Y-91214174D01*
X135053079Y-91414725D01*
X135267497Y-91556901D01*
X135274115Y-91560345D01*
X135348957Y-91596975D01*
X135418017Y-91622730D01*
X135495661Y-91639951D01*
X135596258Y-91650978D01*
X135734174Y-91658152D01*
X135923777Y-91663814D01*
X136398594Y-91676072D01*
X136237561Y-91381766D01*
X136232483Y-91372489D01*
X136170752Y-91260111D01*
X136083541Y-91101813D01*
X135976734Y-90908253D01*
X135856217Y-90690094D01*
X135727875Y-90457995D01*
X135597594Y-90222615D01*
X135118660Y-89357770D01*
X134668954Y-89357689D01*
X134555107Y-89357951D01*
X134403025Y-89360392D01*
X134297380Y-89366680D01*
X134225739Y-89378360D01*
X134175674Y-89396975D01*
X134134754Y-89424070D01*
X134095314Y-89460961D01*
X134039919Y-89558832D01*
X134024992Y-89686385D01*
X132643906Y-89686385D01*
X132585390Y-89548838D01*
X132505452Y-89321279D01*
X132452834Y-89113149D01*
X132423533Y-88909907D01*
X132413545Y-88697009D01*
X132413326Y-88605954D01*
X132416902Y-88466404D01*
X132427873Y-88366777D01*
X132448707Y-88289769D01*
X132481872Y-88218076D01*
X132554361Y-88103619D01*
X132705033Y-87950778D01*
X132905657Y-87831745D01*
X132922444Y-87824063D01*
X132965594Y-87805755D01*
X133010450Y-87791045D01*
X133064161Y-87779538D01*
X133133879Y-87770842D01*
X133226754Y-87764563D01*
X133349936Y-87760308D01*
X133510577Y-87757683D01*
X133715825Y-87756295D01*
X133972832Y-87755751D01*
X134288749Y-87755657D01*
X135506692Y-87755657D01*
X137680916Y-91676072D01*
X137851404Y-91983485D01*
X137863070Y-92004522D01*
G37*
G36*
X96903322Y-91969030D02*
G01*
X96915569Y-91991123D01*
X97186908Y-92480799D01*
X97449397Y-92954872D01*
X97701248Y-93410099D01*
X97940676Y-93843237D01*
X98165895Y-94251044D01*
X98375121Y-94630278D01*
X98566566Y-94977695D01*
X98738446Y-95290055D01*
X98888976Y-95564113D01*
X99016368Y-95796628D01*
X99118838Y-95984357D01*
X99194601Y-96124058D01*
X99241869Y-96212487D01*
X99258859Y-96246404D01*
X99259408Y-96250722D01*
X99249351Y-96266495D01*
X99213164Y-96278010D01*
X99142861Y-96285887D01*
X99030460Y-96290746D01*
X98867976Y-96293206D01*
X98647426Y-96293889D01*
X98025314Y-96293889D01*
X95714981Y-92123863D01*
X95466351Y-91675130D01*
X95203314Y-91200465D01*
X94950108Y-90743611D01*
X94708581Y-90307898D01*
X94480580Y-89896658D01*
X94267954Y-89513223D01*
X94072551Y-89160925D01*
X93896218Y-88843094D01*
X93740804Y-88563062D01*
X93608158Y-88324160D01*
X93500126Y-88129721D01*
X93418557Y-87983075D01*
X93365300Y-87887554D01*
X93342201Y-87846489D01*
X93279756Y-87739142D01*
X94558464Y-87739142D01*
X96903322Y-91969030D01*
G37*
G36*
X80328372Y-92006829D02*
G01*
X81643238Y-92016515D01*
X81791872Y-92104204D01*
X81840585Y-92134623D01*
X81940350Y-92206087D01*
X82012168Y-92269354D01*
X82036864Y-92302333D01*
X82093923Y-92389743D01*
X82174052Y-92519154D01*
X82271905Y-92681765D01*
X82382134Y-92868774D01*
X82499393Y-93071379D01*
X82589245Y-93226920D01*
X82701705Y-93418403D01*
X82803107Y-93587559D01*
X82888097Y-93725588D01*
X82951318Y-93823692D01*
X82987414Y-93873071D01*
X83033942Y-93913112D01*
X83131202Y-93978430D01*
X83243362Y-94040315D01*
X83426853Y-94130430D01*
X84648960Y-94146944D01*
X84716257Y-94147853D01*
X85037481Y-94152394D01*
X85300974Y-94157257D01*
X85513740Y-94163569D01*
X85682785Y-94172459D01*
X85815114Y-94185054D01*
X85917732Y-94202484D01*
X85997644Y-94225875D01*
X86061856Y-94256357D01*
X86117374Y-94295058D01*
X86171201Y-94343106D01*
X86230344Y-94401628D01*
X86230611Y-94401895D01*
X86284315Y-94468306D01*
X86362223Y-94581233D01*
X86457013Y-94729246D01*
X86561362Y-94900915D01*
X86667950Y-95084808D01*
X86759015Y-95245855D01*
X86878741Y-95457514D01*
X86995180Y-95663291D01*
X87098594Y-95845977D01*
X87179245Y-95988362D01*
X87371117Y-96326918D01*
X85977009Y-96326596D01*
X85895886Y-96326576D01*
X85569901Y-96326396D01*
X85301942Y-96325823D01*
X85085442Y-96324533D01*
X84913828Y-96322198D01*
X84780532Y-96318493D01*
X84678984Y-96313093D01*
X84602614Y-96305672D01*
X84544851Y-96295903D01*
X84499126Y-96283461D01*
X84458869Y-96268020D01*
X84417510Y-96249255D01*
X84361343Y-96219692D01*
X84242451Y-96139455D01*
X84149125Y-96054932D01*
X84128040Y-96027887D01*
X84067579Y-95938607D01*
X83984413Y-95806769D01*
X83884591Y-95642255D01*
X83774165Y-95454946D01*
X83659185Y-95254725D01*
X83596254Y-95144442D01*
X83483603Y-94950795D01*
X83379159Y-94775829D01*
X83288884Y-94629314D01*
X83218740Y-94521020D01*
X83174688Y-94460717D01*
X83141663Y-94427029D01*
X83035881Y-94342255D01*
X82921695Y-94273050D01*
X82886975Y-94256500D01*
X82843397Y-94239000D01*
X82793625Y-94225020D01*
X82730175Y-94214016D01*
X82645566Y-94205443D01*
X82532314Y-94198756D01*
X82382938Y-94193410D01*
X82189955Y-94188861D01*
X81945882Y-94184564D01*
X81643238Y-94179974D01*
X81452623Y-94177119D01*
X81185854Y-94172705D01*
X80973352Y-94168230D01*
X80807769Y-94163181D01*
X80681758Y-94157040D01*
X80587970Y-94149294D01*
X80519058Y-94139426D01*
X80467675Y-94126922D01*
X80426472Y-94111265D01*
X80388101Y-94091941D01*
X80347044Y-94067326D01*
X80235797Y-93985229D01*
X80135752Y-93893761D01*
X80106062Y-93855566D01*
X80043191Y-93762123D01*
X79957113Y-93626638D01*
X79852997Y-93457808D01*
X79736014Y-93264329D01*
X79611333Y-93054899D01*
X79484124Y-92838215D01*
X79359557Y-92622975D01*
X79242801Y-92417876D01*
X79139027Y-92231614D01*
X79053403Y-92072889D01*
X79013506Y-91997142D01*
X80328372Y-92006829D01*
G37*
G36*
X143184442Y-87706113D02*
G01*
X143526792Y-87706486D01*
X143810419Y-87708156D01*
X144042136Y-87712034D01*
X144228756Y-87719030D01*
X144377092Y-87730054D01*
X144493957Y-87746016D01*
X144586165Y-87767826D01*
X144660528Y-87796395D01*
X144723860Y-87832633D01*
X144782974Y-87877449D01*
X144844683Y-87931755D01*
X144895023Y-87986155D01*
X144979214Y-88100234D01*
X145086309Y-88265934D01*
X145218048Y-88485973D01*
X145376168Y-88763069D01*
X145451841Y-88896682D01*
X145565661Y-89092810D01*
X145671245Y-89269230D01*
X145762730Y-89416377D01*
X145834251Y-89524690D01*
X145879944Y-89584604D01*
X145920742Y-89622924D01*
X146032256Y-89706141D01*
X146150650Y-89774204D01*
X146174986Y-89785603D01*
X146221093Y-89805207D01*
X146269492Y-89820550D01*
X146328151Y-89832155D01*
X146405044Y-89840548D01*
X146508140Y-89846256D01*
X146645412Y-89849803D01*
X146824830Y-89851714D01*
X147054365Y-89852516D01*
X147341989Y-89852734D01*
X147426327Y-89852798D01*
X147717860Y-89853857D01*
X147952683Y-89856435D01*
X148138241Y-89860846D01*
X148281976Y-89867404D01*
X148391331Y-89876421D01*
X148473748Y-89888213D01*
X148536671Y-89903093D01*
X148598136Y-89923371D01*
X148688451Y-89963897D01*
X148773486Y-90019831D01*
X148858314Y-90097364D01*
X148948009Y-90202683D01*
X149047647Y-90341980D01*
X149162300Y-90521441D01*
X149297042Y-90747258D01*
X149456948Y-91025618D01*
X149458198Y-91027818D01*
X149579601Y-91241329D01*
X149693348Y-91440902D01*
X149794455Y-91617831D01*
X149877938Y-91763408D01*
X149938815Y-91868928D01*
X149972102Y-91925683D01*
X150037052Y-92033030D01*
X148754449Y-92032708D01*
X148516167Y-92032618D01*
X148234315Y-92032227D01*
X148006664Y-92031192D01*
X147826295Y-92029143D01*
X147686289Y-92025710D01*
X147579729Y-92020525D01*
X147499695Y-92013216D01*
X147439269Y-92003416D01*
X147391533Y-91990754D01*
X147349569Y-91974861D01*
X147306456Y-91955367D01*
X147250280Y-91925799D01*
X147131413Y-91845587D01*
X147038124Y-91761104D01*
X147018774Y-91736495D01*
X146959023Y-91649018D01*
X146876297Y-91518806D01*
X146776733Y-91355823D01*
X146666472Y-91170036D01*
X146551653Y-90971410D01*
X146416382Y-90735767D01*
X146304973Y-90546555D01*
X146213852Y-90399695D01*
X146137283Y-90287321D01*
X146069531Y-90201568D01*
X146004860Y-90134572D01*
X145937536Y-90078466D01*
X145861823Y-90025387D01*
X145726301Y-89935631D01*
X143442197Y-89902601D01*
X143271223Y-89812445D01*
X143206119Y-89773850D01*
X143087957Y-89686358D01*
X142996293Y-89597751D01*
X142987369Y-89585894D01*
X142943722Y-89519283D01*
X142875726Y-89409209D01*
X142788225Y-89264024D01*
X142686064Y-89092080D01*
X142574089Y-88901730D01*
X142457142Y-88701327D01*
X142340071Y-88499222D01*
X142227718Y-88303768D01*
X142124929Y-88123317D01*
X142036549Y-87966222D01*
X141967422Y-87840836D01*
X141922393Y-87755510D01*
X141906307Y-87718597D01*
X141907003Y-87718179D01*
X141947853Y-87715409D01*
X142046526Y-87712867D01*
X142195830Y-87710627D01*
X142388576Y-87708760D01*
X142617573Y-87707337D01*
X142875631Y-87706430D01*
X143155559Y-87706112D01*
X143184442Y-87706113D01*
G37*
G36*
X100299693Y-87743967D02*
G01*
X100519399Y-87746673D01*
X101154161Y-87755657D01*
X102755702Y-90645774D01*
X102867784Y-90847908D01*
X103093009Y-91253315D01*
X103311053Y-91644788D01*
X103519441Y-92017939D01*
X103715700Y-92368376D01*
X103897357Y-92691708D01*
X104061938Y-92983546D01*
X104206969Y-93239498D01*
X104329977Y-93455175D01*
X104428489Y-93626185D01*
X104500031Y-93748139D01*
X104542129Y-93816645D01*
X104572129Y-93861243D01*
X104731170Y-94073133D01*
X104907155Y-94273903D01*
X105088204Y-94451695D01*
X105262437Y-94594649D01*
X105417972Y-94690906D01*
X105581402Y-94753117D01*
X105759906Y-94785592D01*
X105920256Y-94779034D01*
X106045727Y-94732339D01*
X106074644Y-94710151D01*
X106143500Y-94604457D01*
X106164744Y-94453887D01*
X106138442Y-94259081D01*
X106064659Y-94020681D01*
X105943461Y-93739328D01*
X105936700Y-93725488D01*
X105889965Y-93634673D01*
X105814229Y-93491868D01*
X105712004Y-93301669D01*
X105585801Y-93068674D01*
X105438133Y-92797480D01*
X105271511Y-92492686D01*
X105088449Y-92158888D01*
X104891459Y-91800683D01*
X104683052Y-91422670D01*
X104465740Y-91029446D01*
X104242037Y-90625608D01*
X104159433Y-90476639D01*
X103942659Y-90085477D01*
X103735653Y-89711608D01*
X103540647Y-89359079D01*
X103359870Y-89031935D01*
X103195553Y-88734223D01*
X103049926Y-88469987D01*
X102925220Y-88243275D01*
X102823664Y-88058130D01*
X102747490Y-87918600D01*
X102698928Y-87828730D01*
X102680208Y-87792566D01*
X102677514Y-87774579D01*
X102691089Y-87760551D01*
X102729625Y-87751088D01*
X102801338Y-87745579D01*
X102914446Y-87743414D01*
X103077164Y-87743983D01*
X103297708Y-87746673D01*
X103936267Y-87755657D01*
X105466645Y-90513654D01*
X105595868Y-90746568D01*
X105866599Y-91234843D01*
X106107920Y-91670643D01*
X106321757Y-92057585D01*
X106510038Y-92399285D01*
X106674690Y-92699361D01*
X106817641Y-92961430D01*
X106940818Y-93189108D01*
X107046148Y-93386013D01*
X107135559Y-93555762D01*
X107210978Y-93701971D01*
X107274333Y-93828258D01*
X107327551Y-93938239D01*
X107372560Y-94035532D01*
X107411286Y-94123753D01*
X107445657Y-94206520D01*
X107477601Y-94287450D01*
X107583688Y-94595475D01*
X107671600Y-94948542D01*
X107715661Y-95276596D01*
X107714968Y-95572353D01*
X107668619Y-95828531D01*
X107620953Y-95945557D01*
X107503135Y-96115260D01*
X107347273Y-96252770D01*
X107169738Y-96341261D01*
X107085398Y-96362442D01*
X106964595Y-96377607D01*
X106806655Y-96383237D01*
X106597334Y-96380304D01*
X106558019Y-96379046D01*
X106324126Y-96363839D01*
X106121753Y-96332666D01*
X105929607Y-96279882D01*
X105726397Y-96199840D01*
X105490832Y-96086896D01*
X105471168Y-96076829D01*
X105114901Y-95863061D01*
X104754379Y-95589382D01*
X104394809Y-95260929D01*
X104041399Y-94882841D01*
X103699357Y-94460256D01*
X103373889Y-93998310D01*
X103371780Y-93995073D01*
X103329426Y-93925628D01*
X103258848Y-93805130D01*
X103162684Y-93638298D01*
X103043573Y-93429855D01*
X102904154Y-93184521D01*
X102747065Y-92907018D01*
X102574944Y-92602067D01*
X102390431Y-92274389D01*
X102196165Y-91928705D01*
X101994782Y-91569736D01*
X101788923Y-91202204D01*
X101581225Y-90830830D01*
X101374328Y-90460334D01*
X101170870Y-90095438D01*
X100973489Y-89740863D01*
X100784824Y-89401331D01*
X100607514Y-89081562D01*
X100444197Y-88786278D01*
X100297512Y-88520200D01*
X100170097Y-88288049D01*
X100064592Y-88094546D01*
X99983634Y-87944412D01*
X99929862Y-87842369D01*
X99905915Y-87793137D01*
X99903013Y-87774719D01*
X99916272Y-87760581D01*
X99954319Y-87751062D01*
X100025403Y-87745536D01*
X100137778Y-87743379D01*
X100299693Y-87743967D01*
G37*
G36*
X119232236Y-87745925D02*
G01*
X119567550Y-87747113D01*
X121340627Y-87755657D01*
X123695258Y-92000000D01*
X123716650Y-92038561D01*
X123988151Y-92528135D01*
X124250627Y-93001738D01*
X124502305Y-93456155D01*
X124741410Y-93888173D01*
X124966171Y-94294579D01*
X125174813Y-94672158D01*
X125365564Y-95017698D01*
X125536651Y-95327983D01*
X125686300Y-95599801D01*
X125812738Y-95829938D01*
X125914192Y-96015181D01*
X125988890Y-96152315D01*
X126035056Y-96238127D01*
X126050920Y-96269403D01*
X126042659Y-96271799D01*
X125979644Y-96276098D01*
X125859667Y-96279786D01*
X125688763Y-96282806D01*
X125472967Y-96285102D01*
X125218314Y-96286617D01*
X124930840Y-96287296D01*
X124616579Y-96287082D01*
X124281568Y-96285918D01*
X122511185Y-96277374D01*
X121629049Y-94691938D01*
X122764269Y-94683256D01*
X123899490Y-94674573D01*
X123344094Y-93675843D01*
X122788699Y-92677114D01*
X121819219Y-92667966D01*
X120849740Y-92658819D01*
X120436866Y-91913745D01*
X120338190Y-91735381D01*
X120235304Y-91548722D01*
X120146972Y-91387730D01*
X120077579Y-91260423D01*
X120031510Y-91174818D01*
X120013150Y-91138935D01*
X120013140Y-91138180D01*
X120047537Y-91129898D01*
X120140391Y-91122033D01*
X120284725Y-91114870D01*
X120473564Y-91108693D01*
X120699931Y-91103788D01*
X120956850Y-91100438D01*
X121911392Y-91091678D01*
X121431970Y-90224643D01*
X120952547Y-89357608D01*
X118665015Y-89357608D01*
X118229744Y-88571802D01*
X118224548Y-88562421D01*
X118110389Y-88355415D01*
X118007700Y-88167601D01*
X117920624Y-88006681D01*
X117853301Y-87880354D01*
X117809870Y-87796321D01*
X117794473Y-87762283D01*
X117803030Y-87759994D01*
X117866600Y-87755947D01*
X117987096Y-87752494D01*
X118158483Y-87749685D01*
X118374726Y-87747571D01*
X118629789Y-87746206D01*
X118917638Y-87745640D01*
X119232236Y-87745925D01*
G37*
G36*
X74413309Y-94229280D02*
G01*
X74474055Y-94262374D01*
X74583878Y-94334433D01*
X74664893Y-94402687D01*
X74669364Y-94407925D01*
X74708638Y-94465098D01*
X74774314Y-94569653D01*
X74861482Y-94713164D01*
X74965231Y-94887205D01*
X75080649Y-95083350D01*
X75202825Y-95293175D01*
X75326848Y-95508254D01*
X75447807Y-95720162D01*
X75560792Y-95920472D01*
X75660890Y-96100761D01*
X75743190Y-96252601D01*
X75782753Y-96326918D01*
X74501682Y-96326596D01*
X74248490Y-96326502D01*
X73969774Y-96326107D01*
X73744897Y-96325057D01*
X73566928Y-96322975D01*
X73428936Y-96319486D01*
X73323989Y-96314213D01*
X73245157Y-96306780D01*
X73185508Y-96296811D01*
X73138110Y-96283929D01*
X73096033Y-96267758D01*
X73052344Y-96247922D01*
X72993867Y-96216711D01*
X72872719Y-96132322D01*
X72776972Y-96041808D01*
X72767932Y-96029849D01*
X72723958Y-95962939D01*
X72655663Y-95852581D01*
X72567891Y-95707125D01*
X72465487Y-95534920D01*
X72353296Y-95344318D01*
X72236160Y-95143666D01*
X72118926Y-94941317D01*
X72006437Y-94745618D01*
X71903537Y-94564922D01*
X71815071Y-94407576D01*
X71745884Y-94281932D01*
X71700818Y-94196340D01*
X71684720Y-94159148D01*
X71686571Y-94158491D01*
X71733079Y-94155833D01*
X71836860Y-94153399D01*
X71990816Y-94151256D01*
X72187846Y-94149471D01*
X72420853Y-94148112D01*
X72682738Y-94147248D01*
X72966401Y-94146944D01*
X74248083Y-94146944D01*
X74413309Y-94229280D01*
G37*
G36*
X77685069Y-87706121D02*
G01*
X78062377Y-87707321D01*
X78381821Y-87710516D01*
X78641766Y-87715665D01*
X78840578Y-87722725D01*
X78976623Y-87731653D01*
X79048266Y-87742408D01*
X79107497Y-87761879D01*
X79190653Y-87798295D01*
X79268935Y-87848097D01*
X79347727Y-87917563D01*
X79432414Y-88012971D01*
X79528379Y-88140599D01*
X79641008Y-88306725D01*
X79775684Y-88517627D01*
X79937792Y-88779584D01*
X79947258Y-88795013D01*
X80107514Y-89053767D01*
X80240814Y-89261807D01*
X80352898Y-89425311D01*
X80449502Y-89550460D01*
X80536364Y-89643434D01*
X80619222Y-89710412D01*
X80703815Y-89757575D01*
X80795879Y-89791102D01*
X80901153Y-89817174D01*
X80906903Y-89818319D01*
X80995785Y-89828273D01*
X81144174Y-89836799D01*
X81346161Y-89843736D01*
X81595838Y-89848920D01*
X81887297Y-89852189D01*
X82214629Y-89853379D01*
X82251980Y-89853390D01*
X82550474Y-89853598D01*
X82791159Y-89854320D01*
X82981455Y-89856000D01*
X83128783Y-89859083D01*
X83240563Y-89864012D01*
X83324215Y-89871232D01*
X83387158Y-89881187D01*
X83436814Y-89894322D01*
X83480602Y-89911081D01*
X83525943Y-89931909D01*
X83582533Y-89961836D01*
X83701047Y-90040430D01*
X83794100Y-90121508D01*
X83804833Y-90135090D01*
X83849921Y-90202586D01*
X83919281Y-90313602D01*
X84008060Y-90459788D01*
X84111407Y-90632796D01*
X84224473Y-90824274D01*
X84342404Y-91025875D01*
X84460351Y-91229249D01*
X84573462Y-91426047D01*
X84676885Y-91607918D01*
X84765770Y-91766515D01*
X84835266Y-91893487D01*
X84880521Y-91980485D01*
X84896684Y-92019160D01*
X84886798Y-92020805D01*
X84821332Y-92023607D01*
X84700367Y-92026130D01*
X84530707Y-92028309D01*
X84319153Y-92030080D01*
X84072511Y-92031379D01*
X83797582Y-92032142D01*
X83501170Y-92032305D01*
X83382828Y-92032228D01*
X83060119Y-92031745D01*
X82794926Y-92030687D01*
X82580800Y-92028792D01*
X82411295Y-92025797D01*
X82279962Y-92021441D01*
X82180353Y-92015461D01*
X82106019Y-92007596D01*
X82050514Y-91997582D01*
X82007390Y-91985158D01*
X81970197Y-91970062D01*
X81914445Y-91942309D01*
X81834450Y-91890691D01*
X81756581Y-91822020D01*
X81675504Y-91729320D01*
X81585887Y-91605611D01*
X81482397Y-91443917D01*
X81359699Y-91237259D01*
X81212462Y-90978659D01*
X81165955Y-90895697D01*
X81031891Y-90656002D01*
X80917648Y-90458359D01*
X80815426Y-90298638D01*
X80717426Y-90172709D01*
X80615848Y-90076441D01*
X80502894Y-90005702D01*
X80370762Y-89956363D01*
X80211655Y-89924293D01*
X80017773Y-89905361D01*
X79781316Y-89895436D01*
X79494485Y-89890388D01*
X79149480Y-89886086D01*
X78879732Y-89882192D01*
X78602301Y-89877354D01*
X78377966Y-89871423D01*
X78199579Y-89863291D01*
X78059995Y-89851852D01*
X77952068Y-89835997D01*
X77868652Y-89814620D01*
X77802601Y-89786613D01*
X77746768Y-89750869D01*
X77694007Y-89706279D01*
X77637173Y-89651738D01*
X77634575Y-89649068D01*
X77592875Y-89596211D01*
X77521807Y-89497093D01*
X77426916Y-89360120D01*
X77313747Y-89193697D01*
X77187845Y-89006230D01*
X77054755Y-88806124D01*
X76920023Y-88601787D01*
X76789193Y-88401623D01*
X76667811Y-88214038D01*
X76561421Y-88047438D01*
X76475570Y-87910229D01*
X76415801Y-87810816D01*
X76387660Y-87757607D01*
X76386302Y-87749513D01*
X76395201Y-87737846D01*
X76423219Y-87728450D01*
X76476221Y-87721085D01*
X76560076Y-87715510D01*
X76680651Y-87711488D01*
X76843814Y-87708776D01*
X77055434Y-87707136D01*
X77321376Y-87706328D01*
X77647510Y-87706112D01*
X77685069Y-87706121D01*
G37*
G36*
X81346499Y-87740311D02*
G01*
X81625646Y-87741828D01*
X81852312Y-87745351D01*
X82033281Y-87751816D01*
X82175336Y-87762157D01*
X82285259Y-87777308D01*
X82369835Y-87798205D01*
X82435846Y-87825780D01*
X82490075Y-87860970D01*
X82539307Y-87904708D01*
X82590323Y-87957929D01*
X82595826Y-87964456D01*
X82637888Y-88025484D01*
X82705678Y-88133060D01*
X82793920Y-88278149D01*
X82897336Y-88451719D01*
X83010651Y-88644737D01*
X83128587Y-88848170D01*
X83245867Y-89052985D01*
X83357216Y-89250149D01*
X83457357Y-89430629D01*
X83541012Y-89585392D01*
X83563765Y-89631758D01*
X83558496Y-89651915D01*
X83504919Y-89636668D01*
X83502019Y-89635825D01*
X83444209Y-89629035D01*
X83329109Y-89621907D01*
X83164478Y-89614708D01*
X82958073Y-89607706D01*
X82717655Y-89601167D01*
X82450981Y-89595358D01*
X82165811Y-89590548D01*
X82063350Y-89589058D01*
X81759407Y-89584429D01*
X81512902Y-89580060D01*
X81317192Y-89575519D01*
X81165636Y-89570375D01*
X81051592Y-89564198D01*
X80968418Y-89556557D01*
X80909472Y-89547022D01*
X80868112Y-89535161D01*
X80837697Y-89520545D01*
X80811584Y-89502742D01*
X80788042Y-89478976D01*
X80725710Y-89395108D01*
X80637512Y-89260382D01*
X80526448Y-89079606D01*
X80395519Y-88857589D01*
X80247724Y-88599138D01*
X80217107Y-88544856D01*
X80099528Y-88335869D01*
X79994241Y-88147905D01*
X79905297Y-87988256D01*
X79836749Y-87864214D01*
X79792649Y-87783070D01*
X79777048Y-87752118D01*
X79777323Y-87751843D01*
X79814820Y-87748954D01*
X79910470Y-87746337D01*
X80057027Y-87744066D01*
X80247244Y-87742211D01*
X80473878Y-87740844D01*
X80729682Y-87740039D01*
X81007412Y-87739868D01*
X81008088Y-87739868D01*
X81346499Y-87740311D01*
G37*
G36*
X123999670Y-87626470D02*
G01*
X124255040Y-87647259D01*
X124498614Y-87700523D01*
X124749465Y-87791427D01*
X125026661Y-87925137D01*
X125109709Y-87969999D01*
X125346951Y-88110872D01*
X125574286Y-88267716D01*
X125803834Y-88449946D01*
X126047714Y-88666975D01*
X126318047Y-88928219D01*
X126585184Y-89202415D01*
X126874060Y-89521083D01*
X127147658Y-89849953D01*
X127412247Y-90197685D01*
X127674097Y-90572940D01*
X127939478Y-90984380D01*
X128214661Y-91440664D01*
X128505914Y-91950456D01*
X128809337Y-92510408D01*
X129072045Y-93032564D01*
X129291349Y-93512945D01*
X129468433Y-93954507D01*
X129604478Y-94360203D01*
X129700670Y-94732985D01*
X129758191Y-95075809D01*
X129775394Y-95364252D01*
X129752380Y-95648052D01*
X129686406Y-95890757D01*
X129578819Y-96089058D01*
X129430967Y-96239644D01*
X129244195Y-96339206D01*
X129206683Y-96350997D01*
X129032567Y-96382195D01*
X128820496Y-96393194D01*
X128589993Y-96384512D01*
X128360579Y-96356668D01*
X128151779Y-96310181D01*
X128140250Y-96306814D01*
X127737529Y-96156364D01*
X127333454Y-95943091D01*
X126931313Y-95669976D01*
X126534394Y-95340001D01*
X126145984Y-94956147D01*
X125769373Y-94521394D01*
X125407847Y-94038724D01*
X125064695Y-93511119D01*
X124989606Y-93387257D01*
X125628125Y-93389538D01*
X126266645Y-93391819D01*
X126481339Y-93723084D01*
X126510958Y-93767833D01*
X126670927Y-93984391D01*
X126848576Y-94190318D01*
X127032012Y-94373543D01*
X127209341Y-94521997D01*
X127368672Y-94623611D01*
X127517705Y-94689264D01*
X127723443Y-94746959D01*
X127910263Y-94761013D01*
X128068297Y-94731029D01*
X128187680Y-94656611D01*
X128236380Y-94585245D01*
X128265859Y-94464420D01*
X128261206Y-94305363D01*
X128221755Y-94106229D01*
X128146841Y-93865175D01*
X128035798Y-93580356D01*
X127887962Y-93249930D01*
X127702667Y-92872051D01*
X127479248Y-92444877D01*
X127217039Y-91966564D01*
X127141057Y-91831168D01*
X126892383Y-91398096D01*
X126664875Y-91019168D01*
X126455010Y-90689173D01*
X126259265Y-90402902D01*
X126074119Y-90155143D01*
X125896047Y-89940686D01*
X125721529Y-89754319D01*
X125718004Y-89750794D01*
X125517742Y-89564078D01*
X125339055Y-89428935D01*
X125171099Y-89339574D01*
X125003032Y-89290203D01*
X124824008Y-89275033D01*
X124707340Y-89281389D01*
X124554245Y-89320138D01*
X124448214Y-89395766D01*
X124388880Y-89510208D01*
X124375874Y-89665400D01*
X124408828Y-89863280D01*
X124487374Y-90105782D01*
X124611145Y-90394844D01*
X124759275Y-90711834D01*
X123488418Y-90711834D01*
X123330106Y-90356762D01*
X123155640Y-89936304D01*
X123024877Y-89552826D01*
X122937855Y-89203685D01*
X122893039Y-88882714D01*
X122888894Y-88583743D01*
X122890372Y-88558164D01*
X122914196Y-88339479D01*
X122959053Y-88167366D01*
X123030757Y-88025630D01*
X123135126Y-87898075D01*
X123163507Y-87869948D01*
X123308738Y-87756955D01*
X123474274Y-87681785D01*
X123673930Y-87639652D01*
X123921521Y-87625774D01*
X123999670Y-87626470D01*
G37*
G36*
X148697629Y-87711478D02*
G01*
X148982965Y-87712932D01*
X149152876Y-87714224D01*
X149449941Y-87716741D01*
X149691011Y-87719453D01*
X149882818Y-87722743D01*
X150032093Y-87726993D01*
X150145567Y-87732584D01*
X150229971Y-87739900D01*
X150292036Y-87749323D01*
X150338493Y-87761234D01*
X150376073Y-87776015D01*
X150411508Y-87794050D01*
X150434500Y-87807196D01*
X150548717Y-87886932D01*
X150648893Y-87975715D01*
X150655437Y-87983308D01*
X150700143Y-88046897D01*
X150770817Y-88157284D01*
X150862382Y-88305824D01*
X150969762Y-88483869D01*
X151087879Y-88682773D01*
X151211656Y-88893891D01*
X151336016Y-89108575D01*
X151455882Y-89318180D01*
X151566177Y-89514060D01*
X151661824Y-89687567D01*
X151737746Y-89830056D01*
X151785778Y-89922660D01*
X150487590Y-89912631D01*
X149189402Y-89902601D01*
X149017685Y-89807439D01*
X148944659Y-89764190D01*
X148845298Y-89696686D01*
X148778823Y-89640805D01*
X148766157Y-89624134D01*
X148721075Y-89554342D01*
X148652154Y-89441290D01*
X148564169Y-89293330D01*
X148461896Y-89118811D01*
X148350112Y-88926085D01*
X148233591Y-88723503D01*
X148117112Y-88519416D01*
X148005449Y-88322174D01*
X147903378Y-88140129D01*
X147815676Y-87981632D01*
X147747118Y-87855034D01*
X147702481Y-87768685D01*
X147686541Y-87730937D01*
X147689096Y-87729214D01*
X147738149Y-87723599D01*
X147844226Y-87718916D01*
X148000270Y-87715265D01*
X148199224Y-87712743D01*
X148434029Y-87711448D01*
X148697629Y-87711478D01*
G37*
G36*
X138851040Y-87706758D02*
G01*
X139016190Y-87784965D01*
X139072499Y-87814659D01*
X139192112Y-87893343D01*
X139286817Y-87974564D01*
X139307087Y-87999067D01*
X139367621Y-88085519D01*
X139450833Y-88214870D01*
X139550602Y-88377255D01*
X139660805Y-88562811D01*
X139775322Y-88761674D01*
X139877706Y-88941840D01*
X139998622Y-89152051D01*
X140096262Y-89316630D01*
X140175726Y-89442706D01*
X140242112Y-89537404D01*
X140300522Y-89607853D01*
X140356054Y-89661179D01*
X140413807Y-89704510D01*
X140478882Y-89744973D01*
X140634655Y-89836541D01*
X141774187Y-89853056D01*
X142030385Y-89856857D01*
X142286481Y-89861140D01*
X142489883Y-89865560D01*
X142647913Y-89870638D01*
X142767890Y-89876895D01*
X142857136Y-89884853D01*
X142922971Y-89895032D01*
X142972716Y-89907955D01*
X143013692Y-89924141D01*
X143053219Y-89944112D01*
X143081859Y-89960347D01*
X143199409Y-90040467D01*
X143300943Y-90126990D01*
X143310630Y-90138391D01*
X143355824Y-90203200D01*
X143425754Y-90311923D01*
X143515488Y-90456204D01*
X143620090Y-90627687D01*
X143734629Y-90818017D01*
X143854169Y-91018838D01*
X143973778Y-91221794D01*
X144088522Y-91418529D01*
X144193466Y-91600688D01*
X144283678Y-91759914D01*
X144354223Y-91887853D01*
X144400168Y-91976149D01*
X144416580Y-92016445D01*
X144414805Y-92017319D01*
X144368603Y-92020908D01*
X144265098Y-92024162D01*
X144111395Y-92026991D01*
X143914597Y-92029308D01*
X143681807Y-92031025D01*
X143420131Y-92032053D01*
X143136671Y-92032305D01*
X142984485Y-92032209D01*
X142666040Y-92031602D01*
X142404040Y-92029673D01*
X142191713Y-92025444D01*
X142022289Y-92017936D01*
X141888995Y-92006174D01*
X141785061Y-91989178D01*
X141703714Y-91965972D01*
X141638184Y-91935576D01*
X141581700Y-91897015D01*
X141527490Y-91849310D01*
X141468782Y-91791483D01*
X141444714Y-91763535D01*
X141379923Y-91673652D01*
X141292842Y-91541279D01*
X141189702Y-91376261D01*
X141076730Y-91188444D01*
X140960158Y-90987671D01*
X140872040Y-90833456D01*
X140750331Y-90622858D01*
X140652173Y-90458209D01*
X140572241Y-90332198D01*
X140505209Y-90237513D01*
X140445753Y-90166844D01*
X140388548Y-90112879D01*
X140328268Y-90068306D01*
X140259588Y-90025816D01*
X140106177Y-89935631D01*
X138867555Y-89918937D01*
X138598810Y-89915096D01*
X138319683Y-89910313D01*
X138094638Y-89905188D01*
X137917045Y-89899375D01*
X137780271Y-89892526D01*
X137677684Y-89884294D01*
X137602651Y-89874332D01*
X137548540Y-89862292D01*
X137508719Y-89847829D01*
X137428772Y-89807560D01*
X137352308Y-89757472D01*
X137277637Y-89692687D01*
X137200070Y-89606973D01*
X137114917Y-89494098D01*
X137017491Y-89347832D01*
X136903102Y-89161942D01*
X136767061Y-88930197D01*
X136604680Y-88646365D01*
X136541180Y-88534373D01*
X136420580Y-88320794D01*
X136313118Y-88129330D01*
X136222714Y-87967031D01*
X136153287Y-87840953D01*
X136108757Y-87758147D01*
X136093043Y-87725666D01*
X136101401Y-87723516D01*
X136164199Y-87719496D01*
X136282738Y-87715844D01*
X136450177Y-87712654D01*
X136659670Y-87710023D01*
X136904374Y-87708046D01*
X137177446Y-87706818D01*
X137472041Y-87706435D01*
X138851040Y-87706758D01*
G37*
G36*
X99413329Y-87739550D02*
G01*
X99850975Y-88530907D01*
X99859052Y-88545514D01*
X99973170Y-88752566D01*
X100075763Y-88939898D01*
X100162719Y-89099904D01*
X100229922Y-89224982D01*
X100273261Y-89307528D01*
X100288621Y-89339936D01*
X100281695Y-89342366D01*
X100222831Y-89347246D01*
X100111667Y-89351438D01*
X99957609Y-89354714D01*
X99770062Y-89356846D01*
X99558430Y-89357608D01*
X99446392Y-89357665D01*
X99234933Y-89358427D01*
X99078414Y-89360559D01*
X98969107Y-89364662D01*
X98899283Y-89371337D01*
X98861214Y-89381187D01*
X98847171Y-89394814D01*
X98849424Y-89412819D01*
X98856214Y-89426333D01*
X98892147Y-89493299D01*
X98956975Y-89612292D01*
X99048688Y-89779669D01*
X99165274Y-89991785D01*
X99304724Y-90244995D01*
X99465028Y-90535656D01*
X99644174Y-90860122D01*
X99840152Y-91214750D01*
X100050952Y-91595894D01*
X100274563Y-91999911D01*
X100508975Y-92423156D01*
X100752178Y-92861984D01*
X100895850Y-93121197D01*
X101133480Y-93550183D01*
X101360840Y-93960946D01*
X101575948Y-94349893D01*
X101776824Y-94713428D01*
X101961486Y-95047959D01*
X102127954Y-95349890D01*
X102274247Y-95615628D01*
X102398384Y-95841579D01*
X102498383Y-96024148D01*
X102572263Y-96159742D01*
X102618044Y-96244766D01*
X102633745Y-96275627D01*
X102633493Y-96276180D01*
X102596852Y-96281711D01*
X102505147Y-96285664D01*
X102368475Y-96287867D01*
X102196931Y-96288151D01*
X102000615Y-96286344D01*
X101367484Y-96277374D01*
X99449625Y-92817491D01*
X97531765Y-89357608D01*
X96001023Y-89357608D01*
X95568489Y-88570612D01*
X95563327Y-88561217D01*
X95449885Y-88353956D01*
X95347842Y-88166012D01*
X95261314Y-88005085D01*
X95194413Y-87878872D01*
X95151256Y-87795071D01*
X95135956Y-87761379D01*
X95139951Y-87760018D01*
X95193855Y-87756251D01*
X95306403Y-87752720D01*
X95472099Y-87749481D01*
X95685448Y-87746590D01*
X95940955Y-87744104D01*
X96233122Y-87742080D01*
X96556457Y-87740575D01*
X96905462Y-87739645D01*
X97274642Y-87739346D01*
X99413329Y-87739550D01*
G37*
G36*
X134087394Y-93850031D02*
G01*
X134381913Y-94231650D01*
X134656321Y-94587278D01*
X134908366Y-94913996D01*
X135135794Y-95208883D01*
X135336352Y-95469018D01*
X135507788Y-95691480D01*
X135647848Y-95873349D01*
X135754279Y-96011704D01*
X135824829Y-96103625D01*
X135857245Y-96146190D01*
X135968262Y-96295251D01*
X135280670Y-96286312D01*
X134593079Y-96277374D01*
X134014333Y-95492913D01*
X133435586Y-94708453D01*
X132617370Y-94708453D01*
X132439776Y-94708650D01*
X132232864Y-94709428D01*
X132056485Y-94710713D01*
X131919521Y-94712414D01*
X131830854Y-94714443D01*
X131799364Y-94716710D01*
X131805511Y-94734913D01*
X131831561Y-94807265D01*
X131875163Y-94926748D01*
X131933200Y-95084858D01*
X132002556Y-95273093D01*
X132080118Y-95482951D01*
X132137382Y-95638227D01*
X132209403Y-95835256D01*
X132270877Y-96005455D01*
X132318668Y-96140057D01*
X132349642Y-96230298D01*
X132360663Y-96267412D01*
X132358623Y-96269474D01*
X132312234Y-96277238D01*
X132212021Y-96283947D01*
X132067771Y-96289214D01*
X131889269Y-96292656D01*
X131686302Y-96293889D01*
X131011941Y-96293889D01*
X129600552Y-92057803D01*
X129515818Y-91803493D01*
X129348295Y-91300757D01*
X129187020Y-90816830D01*
X129033210Y-90355366D01*
X129024850Y-90330289D01*
X130189484Y-90330289D01*
X130194089Y-90346866D01*
X130218627Y-90418781D01*
X130262204Y-90541855D01*
X130322552Y-90709812D01*
X130397404Y-90916376D01*
X130484490Y-91155270D01*
X130581543Y-91420219D01*
X130686294Y-91704947D01*
X131190825Y-93073472D01*
X131713171Y-93082586D01*
X132235518Y-93091700D01*
X132132327Y-92950467D01*
X132123209Y-92937988D01*
X131976376Y-92737453D01*
X131814074Y-92516444D01*
X131640506Y-92280628D01*
X131459872Y-92035674D01*
X131276377Y-91787248D01*
X131094221Y-91541017D01*
X130917607Y-91302650D01*
X130750738Y-91077812D01*
X130597816Y-90872172D01*
X130463042Y-90691397D01*
X130350620Y-90541153D01*
X130264752Y-90427110D01*
X130209639Y-90354932D01*
X130189484Y-90330289D01*
X129024850Y-90330289D01*
X128888086Y-89920021D01*
X128752867Y-89514451D01*
X128628771Y-89142310D01*
X128517019Y-88807255D01*
X128418828Y-88512941D01*
X128335419Y-88263024D01*
X128268011Y-88061158D01*
X128217822Y-87911000D01*
X128186072Y-87816206D01*
X128173980Y-87780430D01*
X128175004Y-87771360D01*
X128202306Y-87758600D01*
X128268080Y-87749672D01*
X128379215Y-87744122D01*
X128542601Y-87741493D01*
X128765127Y-87741330D01*
X129371456Y-87743518D01*
X132558842Y-91870324D01*
X132753272Y-92122068D01*
X133105704Y-92578441D01*
X133447037Y-93020506D01*
X133502000Y-93091700D01*
X133775018Y-93445343D01*
X134087394Y-93850031D01*
G37*
G36*
X83879073Y-87739533D02*
G01*
X84516840Y-87739923D01*
X85934752Y-90298972D01*
X86131749Y-90654271D01*
X86333284Y-91017231D01*
X86523471Y-91359224D01*
X86700021Y-91676156D01*
X86860643Y-91963933D01*
X87003046Y-92218461D01*
X87124939Y-92435646D01*
X87224032Y-92611395D01*
X87298034Y-92741614D01*
X87344654Y-92822207D01*
X87361603Y-92849083D01*
X87361479Y-92846305D01*
X87352487Y-92796641D01*
X87330864Y-92688657D01*
X87297643Y-92527261D01*
X87253861Y-92317364D01*
X87200551Y-92063876D01*
X87138750Y-91771706D01*
X87069492Y-91445766D01*
X86993811Y-91090964D01*
X86912744Y-90712210D01*
X86827324Y-90314415D01*
X86804315Y-90207410D01*
X86719713Y-89813571D01*
X86639536Y-89439725D01*
X86564839Y-89090829D01*
X86496678Y-88771834D01*
X86436107Y-88487694D01*
X86384180Y-88243364D01*
X86341954Y-88043795D01*
X86310482Y-87893943D01*
X86290821Y-87798761D01*
X86284023Y-87763201D01*
X86284279Y-87762475D01*
X86320960Y-87755166D01*
X86412695Y-87749669D01*
X86549393Y-87746248D01*
X86720960Y-87745166D01*
X86917304Y-87746686D01*
X87550667Y-87755657D01*
X89905069Y-92000000D01*
X89926364Y-92038390D01*
X90197851Y-92527984D01*
X90460319Y-93001613D01*
X90711995Y-93456061D01*
X90951105Y-93888115D01*
X91175875Y-94294560D01*
X91384532Y-94672182D01*
X91575303Y-95017767D01*
X91746414Y-95328101D01*
X91896091Y-95599970D01*
X92022562Y-95830158D01*
X92124054Y-96015453D01*
X92198791Y-96152639D01*
X92245002Y-96238502D01*
X92260912Y-96269829D01*
X92260689Y-96270564D01*
X92224381Y-96277870D01*
X92132997Y-96283364D01*
X91996601Y-96286783D01*
X91825259Y-96287864D01*
X91629034Y-96286344D01*
X90995714Y-96277374D01*
X89573831Y-93711142D01*
X89373465Y-93349684D01*
X89171883Y-92986375D01*
X88981741Y-92644036D01*
X88805323Y-92326759D01*
X88644911Y-92038636D01*
X88502787Y-91783760D01*
X88381233Y-91566223D01*
X88282531Y-91390119D01*
X88208963Y-91259539D01*
X88162812Y-91178577D01*
X88146360Y-91151324D01*
X88146548Y-91153455D01*
X88155656Y-91200851D01*
X88177398Y-91306711D01*
X88210729Y-91466115D01*
X88254605Y-91674146D01*
X88307982Y-91925884D01*
X88369815Y-92216409D01*
X88439058Y-92540804D01*
X88514668Y-92894148D01*
X88595600Y-93271524D01*
X88680810Y-93668011D01*
X88699845Y-93756526D01*
X88784514Y-94151022D01*
X88864818Y-94526430D01*
X88939690Y-94877695D01*
X89008065Y-95199765D01*
X89068878Y-95487586D01*
X89121064Y-95736104D01*
X89163557Y-95940267D01*
X89195291Y-96095020D01*
X89215202Y-96195311D01*
X89222224Y-96236086D01*
X89219300Y-96253889D01*
X89202394Y-96269479D01*
X89162713Y-96280421D01*
X89091602Y-96287526D01*
X88980403Y-96291599D01*
X88820461Y-96293451D01*
X88603118Y-96293889D01*
X87982634Y-96293889D01*
X85754288Y-92274852D01*
X85591327Y-91980931D01*
X85328101Y-91506152D01*
X85073197Y-91046360D01*
X84828590Y-90605119D01*
X84596256Y-90185996D01*
X84378172Y-89792556D01*
X84176314Y-89428364D01*
X83992658Y-89096985D01*
X83829179Y-88801987D01*
X83687855Y-88546933D01*
X83570662Y-88335390D01*
X83479575Y-88170923D01*
X83416570Y-88057097D01*
X83383624Y-87997479D01*
X83241305Y-87739142D01*
X83879073Y-87739533D01*
G37*
G36*
X74924788Y-92000403D02*
G01*
X75205805Y-92000771D01*
X75432490Y-92001777D01*
X75611821Y-92003805D01*
X75750774Y-92007240D01*
X75856326Y-92012465D01*
X75935453Y-92019862D01*
X75995131Y-92029816D01*
X76042338Y-92042710D01*
X76084050Y-92058928D01*
X76127243Y-92078853D01*
X76183598Y-92108585D01*
X76303033Y-92187255D01*
X76397469Y-92268452D01*
X76418121Y-92293510D01*
X76478871Y-92380303D01*
X76562385Y-92509874D01*
X76662543Y-92672394D01*
X76773227Y-92858031D01*
X76888316Y-93056957D01*
X76896842Y-93071928D01*
X77040208Y-93324303D01*
X77161786Y-93532911D01*
X77269554Y-93702004D01*
X77371494Y-93835831D01*
X77475584Y-93938644D01*
X77589807Y-94014692D01*
X77722140Y-94068226D01*
X77880566Y-94103496D01*
X78073063Y-94124752D01*
X78307611Y-94136246D01*
X78592192Y-94142226D01*
X78934785Y-94146944D01*
X79123764Y-94149775D01*
X79390876Y-94154193D01*
X79603681Y-94158669D01*
X79769525Y-94163719D01*
X79895758Y-94169856D01*
X79989727Y-94177596D01*
X80058780Y-94187454D01*
X80110264Y-94199945D01*
X80151529Y-94215582D01*
X80189922Y-94234882D01*
X80212978Y-94248066D01*
X80327205Y-94327791D01*
X80427421Y-94416547D01*
X80445668Y-94439971D01*
X80498399Y-94519235D01*
X80575127Y-94641703D01*
X80670652Y-94798471D01*
X80779774Y-94980636D01*
X80897293Y-95179297D01*
X81018009Y-95385551D01*
X81136721Y-95590495D01*
X81248229Y-95785228D01*
X81347334Y-95960846D01*
X81428836Y-96108447D01*
X81487533Y-96219129D01*
X81518227Y-96283989D01*
X81517718Y-96290044D01*
X81498061Y-96300136D01*
X81449366Y-96308284D01*
X81366345Y-96314662D01*
X81243709Y-96319449D01*
X81076171Y-96322819D01*
X80858442Y-96324949D01*
X80585234Y-96326015D01*
X80251258Y-96326193D01*
X79941571Y-96325854D01*
X79670041Y-96324979D01*
X79451368Y-96323275D01*
X79278751Y-96320436D01*
X79145385Y-96316160D01*
X79044467Y-96310140D01*
X78969195Y-96302074D01*
X78912764Y-96291655D01*
X78868373Y-96278580D01*
X78829217Y-96262545D01*
X78791594Y-96244284D01*
X78708036Y-96192798D01*
X78626755Y-96123583D01*
X78542470Y-96029736D01*
X78449897Y-95904353D01*
X78343755Y-95740532D01*
X78218760Y-95531369D01*
X78069629Y-95269961D01*
X78024980Y-95190832D01*
X77883566Y-94945502D01*
X77764602Y-94750054D01*
X77662655Y-94597258D01*
X77572288Y-94479885D01*
X77488067Y-94390705D01*
X77404556Y-94322489D01*
X77316320Y-94268008D01*
X77293061Y-94255863D01*
X77253858Y-94238816D01*
X77207381Y-94225126D01*
X77146283Y-94214277D01*
X77063217Y-94205753D01*
X76950834Y-94199039D01*
X76801787Y-94193619D01*
X76608728Y-94188979D01*
X76364309Y-94184602D01*
X76061183Y-94179974D01*
X75818503Y-94176329D01*
X75562450Y-94172015D01*
X75359098Y-94167566D01*
X75200964Y-94162438D01*
X75080566Y-94156086D01*
X74990421Y-94147965D01*
X74923048Y-94137531D01*
X74870962Y-94124238D01*
X74826682Y-94107542D01*
X74782726Y-94086898D01*
X74735552Y-94061204D01*
X74621356Y-93983013D01*
X74531833Y-93901623D01*
X74523079Y-93890449D01*
X74479153Y-93824835D01*
X74410729Y-93715530D01*
X74322681Y-93570894D01*
X74219885Y-93399288D01*
X74107215Y-93209073D01*
X73989544Y-93008611D01*
X73871748Y-92806263D01*
X73758701Y-92610388D01*
X73655277Y-92429350D01*
X73566351Y-92271508D01*
X73496798Y-92145223D01*
X73451491Y-92058858D01*
X73435305Y-92020772D01*
X73436440Y-92019890D01*
X73479773Y-92015329D01*
X73580686Y-92011165D01*
X73732029Y-92007511D01*
X73926652Y-92004484D01*
X74157405Y-92002200D01*
X74417137Y-92000775D01*
X74698699Y-92000323D01*
X74924788Y-92000403D01*
G37*
%TD*%
M02*
