%TF.GenerationSoftware,KiCad,Pcbnew,(6.0.1)*%
%TF.CreationDate,2022-12-13T21:33:40+01:00*%
%TF.ProjectId,SRD_Enhanced,5352445f-456e-4686-916e-6365642e6b69,rev?*%
%TF.SameCoordinates,Original*%
%TF.FileFunction,Copper,L2,Bot*%
%TF.FilePolarity,Positive*%
%FSLAX46Y46*%
G04 Gerber Fmt 4.6, Leading zero omitted, Abs format (unit mm)*
G04 Created by KiCad (PCBNEW (6.0.1)) date 2022-12-13 21:33:40*
%MOMM*%
%LPD*%
G01*
G04 APERTURE LIST*
%TA.AperFunction,SMDPad,CuDef*%
%ADD10R,0.400000X2.000000*%
%TD*%
%TA.AperFunction,ComponentPad*%
%ADD11C,1.946000*%
%TD*%
%TA.AperFunction,ViaPad*%
%ADD12C,0.800000*%
%TD*%
%TA.AperFunction,Conductor*%
%ADD13C,0.250000*%
%TD*%
%TA.AperFunction,Conductor*%
%ADD14C,0.399800*%
%TD*%
%TA.AperFunction,Conductor*%
%ADD15C,0.500000*%
%TD*%
G04 APERTURE END LIST*
D10*
%TO.P,J3,1,1*%
%TO.N,+5V*%
X113050000Y-50775000D03*
%TO.P,J3,2,2*%
%TO.N,unconnected-(J3-Pad2)*%
X112400000Y-50775000D03*
%TO.P,J3,3,3*%
%TO.N,unconnected-(J3-Pad3)*%
X111750000Y-50775000D03*
%TO.P,J3,4,4*%
%TO.N,unconnected-(J3-Pad4)*%
X111100000Y-50775000D03*
%TO.P,J3,5,5*%
%TO.N,GND*%
X110450000Y-50775000D03*
D11*
%TO.P,J3,MH1,MH1*%
%TO.N,unconnected-(J3-PadMH1)*%
X115325000Y-51915000D03*
%TO.P,J3,MH2,MH2*%
%TO.N,unconnected-(J3-PadMH2)*%
X108175000Y-51915000D03*
%TD*%
D12*
%TO.N,GND*%
X110450000Y-49166500D03*
X132900000Y-61650000D03*
X107000000Y-90550000D03*
%TO.N,+5V*%
X113695000Y-46798400D03*
%TD*%
D13*
%TO.N,GND*%
X110450000Y-49166500D02*
X110450000Y-50775000D01*
D14*
%TO.N,+5V*%
X113050200Y-50775000D02*
X113050000Y-50775000D01*
D15*
X113050200Y-50775000D02*
X113695000Y-50130200D01*
X113695000Y-50130200D02*
X113695000Y-46798400D01*
%TD*%
%TA.AperFunction,Conductor*%
%TO.N,GND*%
G36*
X167970056Y-40509500D02*
G01*
X167972284Y-40509847D01*
X167984859Y-40511805D01*
X167984861Y-40511805D01*
X167993730Y-40513186D01*
X168002632Y-40512022D01*
X168002634Y-40512022D01*
X168008959Y-40511195D01*
X168034282Y-40510452D01*
X168198126Y-40522170D01*
X168203343Y-40522543D01*
X168221137Y-40525101D01*
X168411540Y-40566521D01*
X168428788Y-40571586D01*
X168611358Y-40639682D01*
X168627710Y-40647149D01*
X168693020Y-40682810D01*
X168798734Y-40740534D01*
X168813848Y-40750248D01*
X168923516Y-40832344D01*
X168969842Y-40867023D01*
X168983428Y-40878796D01*
X169121204Y-41016572D01*
X169132977Y-41030158D01*
X169249752Y-41186152D01*
X169259469Y-41201271D01*
X169352851Y-41372290D01*
X169360318Y-41388642D01*
X169428414Y-41571212D01*
X169433480Y-41588462D01*
X169474899Y-41778863D01*
X169477457Y-41796658D01*
X169489041Y-41958629D01*
X169488297Y-41976533D01*
X169488195Y-41984858D01*
X169486814Y-41993730D01*
X169487978Y-42002632D01*
X169487978Y-42002635D01*
X169490936Y-42025251D01*
X169492000Y-42041589D01*
X169492000Y-100950672D01*
X169490500Y-100970056D01*
X169486814Y-100993730D01*
X169487978Y-101002632D01*
X169487978Y-101002634D01*
X169488805Y-101008959D01*
X169489548Y-101034282D01*
X169483732Y-101115605D01*
X169477457Y-101203343D01*
X169474899Y-101221137D01*
X169433480Y-101411538D01*
X169428414Y-101428788D01*
X169360318Y-101611358D01*
X169352851Y-101627710D01*
X169259469Y-101798729D01*
X169249752Y-101813848D01*
X169203214Y-101876016D01*
X169132977Y-101969842D01*
X169121204Y-101983428D01*
X168983428Y-102121204D01*
X168969841Y-102132977D01*
X168813848Y-102249752D01*
X168798734Y-102259466D01*
X168693020Y-102317190D01*
X168627710Y-102352851D01*
X168611358Y-102360318D01*
X168428788Y-102428414D01*
X168411540Y-102433479D01*
X168248022Y-102469051D01*
X168221137Y-102474899D01*
X168203342Y-102477457D01*
X168154443Y-102480954D01*
X168041369Y-102489041D01*
X168023467Y-102488297D01*
X168015142Y-102488195D01*
X168006270Y-102486814D01*
X167997368Y-102487978D01*
X167997365Y-102487978D01*
X167974749Y-102490936D01*
X167958411Y-102492000D01*
X145708702Y-102492000D01*
X145707932Y-102491998D01*
X145707078Y-102491993D01*
X145630348Y-102491524D01*
X145621719Y-102493990D01*
X145621714Y-102493991D01*
X145601952Y-102499639D01*
X145585191Y-102503217D01*
X145564848Y-102506130D01*
X145564838Y-102506133D01*
X145555955Y-102507405D01*
X145532605Y-102518021D01*
X145515093Y-102524464D01*
X145507057Y-102526761D01*
X145490435Y-102531512D01*
X145465452Y-102547274D01*
X145450386Y-102555404D01*
X145423490Y-102567633D01*
X145404061Y-102584374D01*
X145389053Y-102595479D01*
X145367369Y-102609160D01*
X145361427Y-102615888D01*
X145347819Y-102631296D01*
X145335627Y-102643340D01*
X145313253Y-102662619D01*
X145308374Y-102670147D01*
X145308371Y-102670150D01*
X145299304Y-102684139D01*
X145288014Y-102699013D01*
X145271044Y-102718228D01*
X145258490Y-102744966D01*
X145250176Y-102759935D01*
X145234107Y-102784727D01*
X145231535Y-102793327D01*
X145226761Y-102809290D01*
X145220099Y-102826736D01*
X145209201Y-102849948D01*
X145204658Y-102879128D01*
X145200873Y-102895854D01*
X145196609Y-102910109D01*
X145157924Y-102969640D01*
X145093195Y-102998807D01*
X145075894Y-103000000D01*
X134323417Y-103000000D01*
X134255296Y-102979998D01*
X134208803Y-102926342D01*
X134202268Y-102908627D01*
X134200361Y-102901955D01*
X134196783Y-102885191D01*
X134193870Y-102864848D01*
X134193867Y-102864838D01*
X134192595Y-102855955D01*
X134181979Y-102832605D01*
X134175536Y-102815093D01*
X134170954Y-102799063D01*
X134168488Y-102790435D01*
X134152726Y-102765452D01*
X134144596Y-102750386D01*
X134132367Y-102723490D01*
X134115626Y-102704061D01*
X134104521Y-102689053D01*
X134095630Y-102674961D01*
X134090840Y-102667369D01*
X134068703Y-102647818D01*
X134056659Y-102635626D01*
X134043239Y-102620051D01*
X134043237Y-102620050D01*
X134037381Y-102613253D01*
X134029853Y-102608374D01*
X134029850Y-102608371D01*
X134015861Y-102599304D01*
X134000987Y-102588014D01*
X133988502Y-102576988D01*
X133981772Y-102571044D01*
X133973646Y-102567229D01*
X133973645Y-102567228D01*
X133967979Y-102564568D01*
X133955034Y-102558490D01*
X133940065Y-102550176D01*
X133915273Y-102534107D01*
X133890709Y-102526761D01*
X133873264Y-102520099D01*
X133868827Y-102518016D01*
X133850052Y-102509201D01*
X133820870Y-102504657D01*
X133804151Y-102500874D01*
X133784464Y-102494986D01*
X133784461Y-102494985D01*
X133775859Y-102492413D01*
X133766884Y-102492358D01*
X133766883Y-102492358D01*
X133760190Y-102492317D01*
X133741444Y-102492203D01*
X133740672Y-102492170D01*
X133739577Y-102492000D01*
X133708702Y-102492000D01*
X133707932Y-102491998D01*
X133634284Y-102491548D01*
X133634283Y-102491548D01*
X133630348Y-102491524D01*
X133629004Y-102491908D01*
X133627659Y-102492000D01*
X89708702Y-102492000D01*
X89707932Y-102491998D01*
X89707078Y-102491993D01*
X89630348Y-102491524D01*
X89621719Y-102493990D01*
X89621714Y-102493991D01*
X89601952Y-102499639D01*
X89585191Y-102503217D01*
X89564848Y-102506130D01*
X89564838Y-102506133D01*
X89555955Y-102507405D01*
X89532605Y-102518021D01*
X89515093Y-102524464D01*
X89507057Y-102526761D01*
X89490435Y-102531512D01*
X89465452Y-102547274D01*
X89450386Y-102555404D01*
X89423490Y-102567633D01*
X89404061Y-102584374D01*
X89389053Y-102595479D01*
X89367369Y-102609160D01*
X89361427Y-102615888D01*
X89347819Y-102631296D01*
X89335627Y-102643340D01*
X89313253Y-102662619D01*
X89308374Y-102670147D01*
X89308371Y-102670150D01*
X89299304Y-102684139D01*
X89288014Y-102699013D01*
X89271044Y-102718228D01*
X89258490Y-102744966D01*
X89250176Y-102759935D01*
X89234107Y-102784727D01*
X89231535Y-102793327D01*
X89226761Y-102809290D01*
X89220099Y-102826736D01*
X89209201Y-102849948D01*
X89204658Y-102879128D01*
X89200873Y-102895854D01*
X89196609Y-102910109D01*
X89157924Y-102969640D01*
X89093195Y-102998807D01*
X89075894Y-103000000D01*
X78323417Y-103000000D01*
X78255296Y-102979998D01*
X78208803Y-102926342D01*
X78202268Y-102908627D01*
X78200361Y-102901955D01*
X78196783Y-102885191D01*
X78193870Y-102864848D01*
X78193867Y-102864838D01*
X78192595Y-102855955D01*
X78181979Y-102832605D01*
X78175536Y-102815093D01*
X78170954Y-102799063D01*
X78168488Y-102790435D01*
X78152726Y-102765452D01*
X78144596Y-102750386D01*
X78132367Y-102723490D01*
X78115626Y-102704061D01*
X78104521Y-102689053D01*
X78095630Y-102674961D01*
X78090840Y-102667369D01*
X78068703Y-102647818D01*
X78056659Y-102635626D01*
X78043239Y-102620051D01*
X78043237Y-102620050D01*
X78037381Y-102613253D01*
X78029853Y-102608374D01*
X78029850Y-102608371D01*
X78015861Y-102599304D01*
X78000987Y-102588014D01*
X77988502Y-102576988D01*
X77981772Y-102571044D01*
X77973646Y-102567229D01*
X77973645Y-102567228D01*
X77967979Y-102564568D01*
X77955034Y-102558490D01*
X77940065Y-102550176D01*
X77915273Y-102534107D01*
X77890709Y-102526761D01*
X77873264Y-102520099D01*
X77868827Y-102518016D01*
X77850052Y-102509201D01*
X77820870Y-102504657D01*
X77804151Y-102500874D01*
X77784464Y-102494986D01*
X77784461Y-102494985D01*
X77775859Y-102492413D01*
X77766884Y-102492358D01*
X77766883Y-102492358D01*
X77760190Y-102492317D01*
X77741444Y-102492203D01*
X77740672Y-102492170D01*
X77739577Y-102492000D01*
X77708702Y-102492000D01*
X77707932Y-102491998D01*
X77634284Y-102491548D01*
X77634283Y-102491548D01*
X77630348Y-102491524D01*
X77629004Y-102491908D01*
X77627659Y-102492000D01*
X55549328Y-102492000D01*
X55529943Y-102490500D01*
X55529661Y-102490456D01*
X55527117Y-102490060D01*
X55515141Y-102488195D01*
X55515139Y-102488195D01*
X55506270Y-102486814D01*
X55497368Y-102487978D01*
X55497366Y-102487978D01*
X55491041Y-102488805D01*
X55465718Y-102489548D01*
X55296657Y-102477457D01*
X55278863Y-102474899D01*
X55251978Y-102469051D01*
X55088460Y-102433479D01*
X55071212Y-102428414D01*
X54888642Y-102360318D01*
X54872290Y-102352851D01*
X54806980Y-102317190D01*
X54701266Y-102259466D01*
X54686152Y-102249752D01*
X54530159Y-102132977D01*
X54516572Y-102121204D01*
X54378796Y-101983428D01*
X54367023Y-101969842D01*
X54296786Y-101876016D01*
X54250248Y-101813848D01*
X54240531Y-101798729D01*
X54147149Y-101627710D01*
X54139682Y-101611358D01*
X54071586Y-101428788D01*
X54066520Y-101411538D01*
X54025101Y-101221137D01*
X54022543Y-101203342D01*
X54010959Y-101041371D01*
X54011703Y-101023467D01*
X54011805Y-101015142D01*
X54013186Y-101006270D01*
X54011547Y-100993730D01*
X54009064Y-100974749D01*
X54008000Y-100958411D01*
X54008000Y-99777874D01*
X62587190Y-99777874D01*
X62603735Y-100064820D01*
X62604560Y-100069025D01*
X62604561Y-100069033D01*
X62638919Y-100244156D01*
X62659070Y-100346865D01*
X62660457Y-100350916D01*
X62736206Y-100572161D01*
X62752171Y-100618792D01*
X62881316Y-100875567D01*
X62883742Y-100879096D01*
X62883745Y-100879102D01*
X62946257Y-100970057D01*
X63044114Y-101112439D01*
X63093653Y-101166882D01*
X63217382Y-101302858D01*
X63237553Y-101325026D01*
X63240841Y-101327775D01*
X63454761Y-101506641D01*
X63454766Y-101506645D01*
X63458053Y-101509393D01*
X63579794Y-101585761D01*
X63697895Y-101659846D01*
X63697899Y-101659848D01*
X63701535Y-101662129D01*
X63963493Y-101780407D01*
X64239079Y-101862040D01*
X64243313Y-101862688D01*
X64243318Y-101862689D01*
X64428169Y-101890975D01*
X64523195Y-101905516D01*
X64669580Y-101907815D01*
X64806291Y-101909963D01*
X64806297Y-101909963D01*
X64810582Y-101910030D01*
X65095923Y-101875500D01*
X65373937Y-101802565D01*
X65377897Y-101800925D01*
X65377902Y-101800923D01*
X65520911Y-101741686D01*
X65639481Y-101692573D01*
X65795675Y-101601301D01*
X65883943Y-101549721D01*
X65883944Y-101549721D01*
X65887641Y-101547560D01*
X66113823Y-101370210D01*
X66313844Y-101163804D01*
X66316377Y-101160356D01*
X66316381Y-101160351D01*
X66481464Y-100935617D01*
X66484002Y-100932162D01*
X66621149Y-100679571D01*
X66671947Y-100545137D01*
X66721227Y-100414721D01*
X66721228Y-100414718D01*
X66722745Y-100410703D01*
X66786912Y-100130534D01*
X66793661Y-100054922D01*
X66812243Y-99846715D01*
X66812463Y-99844250D01*
X66812926Y-99800000D01*
X66812757Y-99797519D01*
X66811418Y-99777874D01*
X156687190Y-99777874D01*
X156703735Y-100064820D01*
X156704560Y-100069025D01*
X156704561Y-100069033D01*
X156738919Y-100244156D01*
X156759070Y-100346865D01*
X156760457Y-100350916D01*
X156836206Y-100572161D01*
X156852171Y-100618792D01*
X156981316Y-100875567D01*
X156983742Y-100879096D01*
X156983745Y-100879102D01*
X157046257Y-100970057D01*
X157144114Y-101112439D01*
X157193653Y-101166882D01*
X157317382Y-101302858D01*
X157337553Y-101325026D01*
X157340841Y-101327775D01*
X157554761Y-101506641D01*
X157554766Y-101506645D01*
X157558053Y-101509393D01*
X157679794Y-101585761D01*
X157797895Y-101659846D01*
X157797899Y-101659848D01*
X157801535Y-101662129D01*
X158063493Y-101780407D01*
X158339079Y-101862040D01*
X158343313Y-101862688D01*
X158343318Y-101862689D01*
X158528169Y-101890975D01*
X158623195Y-101905516D01*
X158769580Y-101907815D01*
X158906291Y-101909963D01*
X158906297Y-101909963D01*
X158910582Y-101910030D01*
X159195923Y-101875500D01*
X159473937Y-101802565D01*
X159477897Y-101800925D01*
X159477902Y-101800923D01*
X159620911Y-101741686D01*
X159739481Y-101692573D01*
X159895675Y-101601301D01*
X159983943Y-101549721D01*
X159983944Y-101549721D01*
X159987641Y-101547560D01*
X160213823Y-101370210D01*
X160413844Y-101163804D01*
X160416377Y-101160356D01*
X160416381Y-101160351D01*
X160581464Y-100935617D01*
X160584002Y-100932162D01*
X160721149Y-100679571D01*
X160771947Y-100545137D01*
X160821227Y-100414721D01*
X160821228Y-100414718D01*
X160822745Y-100410703D01*
X160886912Y-100130534D01*
X160893661Y-100054922D01*
X160912243Y-99846715D01*
X160912463Y-99844250D01*
X160912926Y-99800000D01*
X160912757Y-99797519D01*
X160893669Y-99517520D01*
X160893668Y-99517514D01*
X160893377Y-99513243D01*
X160888841Y-99491337D01*
X160835962Y-99235998D01*
X160835091Y-99231792D01*
X160827556Y-99210512D01*
X160740579Y-98964897D01*
X160739148Y-98960856D01*
X160607321Y-98705447D01*
X160542341Y-98612989D01*
X160444515Y-98473798D01*
X160442052Y-98470293D01*
X160282058Y-98298119D01*
X160249318Y-98262886D01*
X160249315Y-98262883D01*
X160246397Y-98259743D01*
X160023978Y-98077695D01*
X159778910Y-97927517D01*
X159774993Y-97925798D01*
X159774990Y-97925796D01*
X159658678Y-97874739D01*
X159515728Y-97811989D01*
X159511600Y-97810813D01*
X159511597Y-97810812D01*
X159425693Y-97786342D01*
X159239302Y-97733247D01*
X159235060Y-97732643D01*
X159235054Y-97732642D01*
X158958998Y-97693353D01*
X158954747Y-97692748D01*
X158803246Y-97691955D01*
X158671614Y-97691265D01*
X158671608Y-97691265D01*
X158667328Y-97691243D01*
X158663083Y-97691802D01*
X158663081Y-97691802D01*
X158597784Y-97700399D01*
X158382365Y-97728760D01*
X158105129Y-97804603D01*
X157840752Y-97917369D01*
X157837071Y-97919572D01*
X157597806Y-98062768D01*
X157597802Y-98062771D01*
X157594124Y-98064972D01*
X157590781Y-98067650D01*
X157590777Y-98067653D01*
X157538353Y-98109653D01*
X157369811Y-98244681D01*
X157171963Y-98453170D01*
X157004240Y-98686581D01*
X156869746Y-98940596D01*
X156770971Y-99210512D01*
X156709741Y-99491337D01*
X156687698Y-99771415D01*
X156687190Y-99777874D01*
X66811418Y-99777874D01*
X66793669Y-99517520D01*
X66793668Y-99517514D01*
X66793377Y-99513243D01*
X66788841Y-99491337D01*
X66735962Y-99235998D01*
X66735091Y-99231792D01*
X66727556Y-99210512D01*
X66640579Y-98964897D01*
X66639148Y-98960856D01*
X66507321Y-98705447D01*
X66442341Y-98612989D01*
X66344515Y-98473798D01*
X66342052Y-98470293D01*
X66182058Y-98298119D01*
X66149318Y-98262886D01*
X66149315Y-98262883D01*
X66146397Y-98259743D01*
X65923978Y-98077695D01*
X65678910Y-97927517D01*
X65674993Y-97925798D01*
X65674990Y-97925796D01*
X65600107Y-97892925D01*
X105806645Y-97892925D01*
X105809793Y-97927517D01*
X105823708Y-98080411D01*
X105824570Y-98089888D01*
X105880410Y-98279619D01*
X105883263Y-98285077D01*
X105883265Y-98285081D01*
X105930720Y-98375853D01*
X105972040Y-98454890D01*
X106095968Y-98609025D01*
X106100692Y-98612989D01*
X106107933Y-98619065D01*
X106247474Y-98736154D01*
X106252872Y-98739121D01*
X106252877Y-98739125D01*
X106389762Y-98814377D01*
X106420787Y-98831433D01*
X106426654Y-98833294D01*
X106426656Y-98833295D01*
X106603436Y-98889373D01*
X106609306Y-98891235D01*
X106763227Y-98908500D01*
X106869769Y-98908500D01*
X106872825Y-98908200D01*
X106872832Y-98908200D01*
X106931340Y-98902463D01*
X107016833Y-98894080D01*
X107022734Y-98892298D01*
X107022736Y-98892298D01*
X107096053Y-98870162D01*
X107206169Y-98836916D01*
X107380796Y-98744066D01*
X107467062Y-98673709D01*
X107529287Y-98622960D01*
X107529290Y-98622957D01*
X107534062Y-98619065D01*
X107546344Y-98604219D01*
X107656201Y-98471425D01*
X107656203Y-98471421D01*
X107660130Y-98466675D01*
X107754198Y-98292701D01*
X107812682Y-98103768D01*
X107816991Y-98062768D01*
X107832711Y-97913204D01*
X107832711Y-97913202D01*
X107833355Y-97907075D01*
X107832067Y-97892925D01*
X113786645Y-97892925D01*
X113789793Y-97927517D01*
X113803708Y-98080411D01*
X113804570Y-98089888D01*
X113860410Y-98279619D01*
X113863263Y-98285077D01*
X113863265Y-98285081D01*
X113910720Y-98375853D01*
X113952040Y-98454890D01*
X114075968Y-98609025D01*
X114080692Y-98612989D01*
X114087933Y-98619065D01*
X114227474Y-98736154D01*
X114232872Y-98739121D01*
X114232877Y-98739125D01*
X114369762Y-98814377D01*
X114400787Y-98831433D01*
X114406654Y-98833294D01*
X114406656Y-98833295D01*
X114583436Y-98889373D01*
X114589306Y-98891235D01*
X114743227Y-98908500D01*
X114849769Y-98908500D01*
X114852825Y-98908200D01*
X114852832Y-98908200D01*
X114911340Y-98902463D01*
X114996833Y-98894080D01*
X115002734Y-98892298D01*
X115002736Y-98892298D01*
X115076053Y-98870162D01*
X115186169Y-98836916D01*
X115360796Y-98744066D01*
X115447062Y-98673709D01*
X115509287Y-98622960D01*
X115509290Y-98622957D01*
X115514062Y-98619065D01*
X115526344Y-98604219D01*
X115636201Y-98471425D01*
X115636203Y-98471421D01*
X115640130Y-98466675D01*
X115734198Y-98292701D01*
X115792682Y-98103768D01*
X115796991Y-98062768D01*
X115812711Y-97913204D01*
X115812711Y-97913202D01*
X115813355Y-97907075D01*
X115797643Y-97734424D01*
X115795989Y-97716251D01*
X115795988Y-97716248D01*
X115795430Y-97710112D01*
X115739590Y-97520381D01*
X115729919Y-97501881D01*
X115650813Y-97350568D01*
X115647960Y-97345110D01*
X115524032Y-97190975D01*
X115517727Y-97185684D01*
X115501334Y-97171929D01*
X115372526Y-97063846D01*
X115367128Y-97060879D01*
X115367123Y-97060875D01*
X115204608Y-96971533D01*
X115204609Y-96971533D01*
X115199213Y-96968567D01*
X115193346Y-96966706D01*
X115193344Y-96966705D01*
X115016564Y-96910627D01*
X115016563Y-96910627D01*
X115010694Y-96908765D01*
X114856773Y-96891500D01*
X114750231Y-96891500D01*
X114747175Y-96891800D01*
X114747168Y-96891800D01*
X114688660Y-96897537D01*
X114603167Y-96905920D01*
X114597266Y-96907702D01*
X114597264Y-96907702D01*
X114523947Y-96929838D01*
X114413831Y-96963084D01*
X114239204Y-97055934D01*
X114152938Y-97126291D01*
X114090713Y-97177040D01*
X114090710Y-97177043D01*
X114085938Y-97180935D01*
X114082011Y-97185682D01*
X114082009Y-97185684D01*
X113963799Y-97328575D01*
X113963797Y-97328579D01*
X113959870Y-97333325D01*
X113865802Y-97507299D01*
X113807318Y-97696232D01*
X113806674Y-97702357D01*
X113806674Y-97702358D01*
X113795152Y-97811989D01*
X113786645Y-97892925D01*
X107832067Y-97892925D01*
X107817643Y-97734424D01*
X107815989Y-97716251D01*
X107815988Y-97716248D01*
X107815430Y-97710112D01*
X107759590Y-97520381D01*
X107749919Y-97501881D01*
X107670813Y-97350568D01*
X107667960Y-97345110D01*
X107544032Y-97190975D01*
X107537727Y-97185684D01*
X107521334Y-97171929D01*
X107392526Y-97063846D01*
X107387128Y-97060879D01*
X107387123Y-97060875D01*
X107224608Y-96971533D01*
X107224609Y-96971533D01*
X107219213Y-96968567D01*
X107213346Y-96966706D01*
X107213344Y-96966705D01*
X107036564Y-96910627D01*
X107036563Y-96910627D01*
X107030694Y-96908765D01*
X106876773Y-96891500D01*
X106770231Y-96891500D01*
X106767175Y-96891800D01*
X106767168Y-96891800D01*
X106708660Y-96897537D01*
X106623167Y-96905920D01*
X106617266Y-96907702D01*
X106617264Y-96907702D01*
X106543947Y-96929838D01*
X106433831Y-96963084D01*
X106259204Y-97055934D01*
X106172938Y-97126291D01*
X106110713Y-97177040D01*
X106110710Y-97177043D01*
X106105938Y-97180935D01*
X106102011Y-97185682D01*
X106102009Y-97185684D01*
X105983799Y-97328575D01*
X105983797Y-97328579D01*
X105979870Y-97333325D01*
X105885802Y-97507299D01*
X105827318Y-97696232D01*
X105826674Y-97702357D01*
X105826674Y-97702358D01*
X105815152Y-97811989D01*
X105806645Y-97892925D01*
X65600107Y-97892925D01*
X65558678Y-97874739D01*
X65415728Y-97811989D01*
X65411600Y-97810813D01*
X65411597Y-97810812D01*
X65325693Y-97786342D01*
X65139302Y-97733247D01*
X65135060Y-97732643D01*
X65135054Y-97732642D01*
X64858998Y-97693353D01*
X64854747Y-97692748D01*
X64703246Y-97691955D01*
X64571614Y-97691265D01*
X64571608Y-97691265D01*
X64567328Y-97691243D01*
X64563083Y-97691802D01*
X64563081Y-97691802D01*
X64497784Y-97700399D01*
X64282365Y-97728760D01*
X64005129Y-97804603D01*
X63740752Y-97917369D01*
X63737071Y-97919572D01*
X63497806Y-98062768D01*
X63497802Y-98062771D01*
X63494124Y-98064972D01*
X63490781Y-98067650D01*
X63490777Y-98067653D01*
X63438353Y-98109653D01*
X63269811Y-98244681D01*
X63071963Y-98453170D01*
X62904240Y-98686581D01*
X62769746Y-98940596D01*
X62670971Y-99210512D01*
X62609741Y-99491337D01*
X62587698Y-99771415D01*
X62587190Y-99777874D01*
X54008000Y-99777874D01*
X54008000Y-63319652D01*
X102491524Y-63319652D01*
X102493990Y-63328281D01*
X102493991Y-63328286D01*
X102499639Y-63348048D01*
X102503217Y-63364809D01*
X102506130Y-63385152D01*
X102506133Y-63385162D01*
X102507405Y-63394045D01*
X102518021Y-63417395D01*
X102524464Y-63434907D01*
X102531512Y-63459565D01*
X102547274Y-63484548D01*
X102555404Y-63499614D01*
X102567633Y-63526510D01*
X102584374Y-63545939D01*
X102595479Y-63560947D01*
X102609160Y-63582631D01*
X102615888Y-63588573D01*
X102631296Y-63602181D01*
X102643340Y-63614373D01*
X102662619Y-63636747D01*
X102670147Y-63641626D01*
X102670150Y-63641629D01*
X102684139Y-63650696D01*
X102699013Y-63661986D01*
X102718228Y-63678956D01*
X102726354Y-63682771D01*
X102726355Y-63682772D01*
X102732021Y-63685432D01*
X102744966Y-63691510D01*
X102759935Y-63699824D01*
X102784727Y-63715893D01*
X102801650Y-63720954D01*
X102809290Y-63723239D01*
X102826736Y-63729901D01*
X102849948Y-63740799D01*
X102879130Y-63745343D01*
X102895849Y-63749126D01*
X102915536Y-63755014D01*
X102915539Y-63755015D01*
X102924141Y-63757587D01*
X102933116Y-63757642D01*
X102933117Y-63757642D01*
X102939810Y-63757683D01*
X102958556Y-63757797D01*
X102959328Y-63757830D01*
X102960423Y-63758000D01*
X102991298Y-63758000D01*
X102992068Y-63758002D01*
X103065716Y-63758452D01*
X103065717Y-63758452D01*
X103069652Y-63758476D01*
X103070996Y-63758092D01*
X103072341Y-63758000D01*
X120491298Y-63758000D01*
X120492069Y-63758002D01*
X120569652Y-63758476D01*
X120578281Y-63756010D01*
X120578286Y-63756009D01*
X120598048Y-63750361D01*
X120614809Y-63746783D01*
X120635152Y-63743870D01*
X120635162Y-63743867D01*
X120644045Y-63742595D01*
X120667395Y-63731979D01*
X120684907Y-63725536D01*
X120700937Y-63720954D01*
X120709565Y-63718488D01*
X120734548Y-63702726D01*
X120749614Y-63694596D01*
X120776510Y-63682367D01*
X120795939Y-63665626D01*
X120810947Y-63654521D01*
X120825039Y-63645630D01*
X120832631Y-63640840D01*
X120852182Y-63618703D01*
X120864374Y-63606659D01*
X120879949Y-63593239D01*
X120879950Y-63593237D01*
X120886747Y-63587381D01*
X120891626Y-63579853D01*
X120891629Y-63579850D01*
X120900696Y-63565861D01*
X120911986Y-63550987D01*
X120923012Y-63538502D01*
X120928956Y-63531772D01*
X120941510Y-63505034D01*
X120949824Y-63490065D01*
X120965893Y-63465273D01*
X120973239Y-63440709D01*
X120979901Y-63423264D01*
X120986983Y-63408179D01*
X120990799Y-63400052D01*
X120995343Y-63370870D01*
X120999126Y-63354151D01*
X121005014Y-63334464D01*
X121005015Y-63334461D01*
X121007587Y-63325859D01*
X121007797Y-63291444D01*
X121007830Y-63290672D01*
X121008000Y-63289577D01*
X121008000Y-63258702D01*
X121008002Y-63257932D01*
X121008452Y-63184284D01*
X121008452Y-63184283D01*
X121008476Y-63180348D01*
X121008092Y-63179004D01*
X121008000Y-63177659D01*
X121008000Y-57758702D01*
X121008002Y-57757932D01*
X121008421Y-57689322D01*
X121008476Y-57680348D01*
X121006010Y-57671719D01*
X121006009Y-57671714D01*
X121000361Y-57651952D01*
X120996783Y-57635191D01*
X120993870Y-57614848D01*
X120993867Y-57614838D01*
X120992595Y-57605955D01*
X120981979Y-57582605D01*
X120975536Y-57565093D01*
X120970954Y-57549063D01*
X120968488Y-57540435D01*
X120952726Y-57515452D01*
X120944596Y-57500386D01*
X120932367Y-57473490D01*
X120915626Y-57454061D01*
X120904521Y-57439053D01*
X120895630Y-57424961D01*
X120890840Y-57417369D01*
X120868703Y-57397818D01*
X120856659Y-57385626D01*
X120843239Y-57370051D01*
X120843237Y-57370050D01*
X120837381Y-57363253D01*
X120829853Y-57358374D01*
X120829850Y-57358371D01*
X120815861Y-57349304D01*
X120800987Y-57338014D01*
X120788502Y-57326988D01*
X120781772Y-57321044D01*
X120773646Y-57317229D01*
X120773645Y-57317228D01*
X120767979Y-57314568D01*
X120755034Y-57308490D01*
X120740065Y-57300176D01*
X120715273Y-57284107D01*
X120690709Y-57276761D01*
X120673264Y-57270099D01*
X120668827Y-57268016D01*
X120650052Y-57259201D01*
X120620870Y-57254657D01*
X120604151Y-57250874D01*
X120584464Y-57244986D01*
X120584461Y-57244985D01*
X120575859Y-57242413D01*
X120566884Y-57242358D01*
X120566883Y-57242358D01*
X120560190Y-57242317D01*
X120541444Y-57242203D01*
X120540672Y-57242170D01*
X120539577Y-57242000D01*
X120508702Y-57242000D01*
X120507932Y-57241998D01*
X120434284Y-57241548D01*
X120434283Y-57241548D01*
X120430348Y-57241524D01*
X120429004Y-57241908D01*
X120427659Y-57242000D01*
X103008702Y-57242000D01*
X103007932Y-57241998D01*
X103007078Y-57241993D01*
X102930348Y-57241524D01*
X102921719Y-57243990D01*
X102921714Y-57243991D01*
X102901952Y-57249639D01*
X102885191Y-57253217D01*
X102864848Y-57256130D01*
X102864838Y-57256133D01*
X102855955Y-57257405D01*
X102832605Y-57268021D01*
X102815093Y-57274464D01*
X102807057Y-57276761D01*
X102790435Y-57281512D01*
X102765452Y-57297274D01*
X102750386Y-57305404D01*
X102723490Y-57317633D01*
X102704061Y-57334374D01*
X102689053Y-57345479D01*
X102667369Y-57359160D01*
X102661427Y-57365888D01*
X102647819Y-57381296D01*
X102635627Y-57393340D01*
X102613253Y-57412619D01*
X102608374Y-57420147D01*
X102608371Y-57420150D01*
X102599304Y-57434139D01*
X102588014Y-57449013D01*
X102571044Y-57468228D01*
X102558490Y-57494966D01*
X102550176Y-57509935D01*
X102534107Y-57534727D01*
X102531535Y-57543327D01*
X102526761Y-57559290D01*
X102520099Y-57576736D01*
X102509201Y-57599948D01*
X102504658Y-57629128D01*
X102500874Y-57645849D01*
X102494986Y-57665536D01*
X102494985Y-57665539D01*
X102492413Y-57674141D01*
X102492358Y-57683116D01*
X102492358Y-57683117D01*
X102492203Y-57708546D01*
X102492170Y-57709328D01*
X102492000Y-57710423D01*
X102492000Y-57741298D01*
X102491998Y-57742068D01*
X102491524Y-57819652D01*
X102491908Y-57820996D01*
X102492000Y-57822341D01*
X102492000Y-63241298D01*
X102491998Y-63242068D01*
X102491524Y-63319652D01*
X54008000Y-63319652D01*
X54008000Y-51237874D01*
X62587190Y-51237874D01*
X62603735Y-51524820D01*
X62604560Y-51529025D01*
X62604561Y-51529033D01*
X62626642Y-51641579D01*
X62659070Y-51806865D01*
X62660457Y-51810916D01*
X62745724Y-52059961D01*
X62752171Y-52078792D01*
X62784787Y-52143642D01*
X62851913Y-52277105D01*
X62881316Y-52335567D01*
X62883742Y-52339096D01*
X62883745Y-52339102D01*
X62922587Y-52395617D01*
X63044114Y-52572439D01*
X63237553Y-52785026D01*
X63240841Y-52787775D01*
X63454761Y-52966641D01*
X63454766Y-52966645D01*
X63458053Y-52969393D01*
X63579794Y-53045761D01*
X63697895Y-53119846D01*
X63697899Y-53119848D01*
X63701535Y-53122129D01*
X63705445Y-53123894D01*
X63705446Y-53123895D01*
X63725020Y-53132733D01*
X63963493Y-53240407D01*
X64239079Y-53322040D01*
X64243313Y-53322688D01*
X64243318Y-53322689D01*
X64494095Y-53361063D01*
X64523195Y-53365516D01*
X64669580Y-53367815D01*
X64806291Y-53369963D01*
X64806297Y-53369963D01*
X64810582Y-53370030D01*
X65095923Y-53335500D01*
X65373937Y-53262565D01*
X65377897Y-53260925D01*
X65377902Y-53260923D01*
X65551751Y-53188912D01*
X65639481Y-53152573D01*
X65673434Y-53132733D01*
X65883943Y-53009721D01*
X65883944Y-53009721D01*
X65887641Y-53007560D01*
X65931447Y-52973212D01*
X66110451Y-52832854D01*
X66113823Y-52830210D01*
X66149901Y-52792981D01*
X66310861Y-52626882D01*
X66313844Y-52623804D01*
X66316377Y-52620356D01*
X66316381Y-52620351D01*
X66481464Y-52395617D01*
X66484002Y-52392162D01*
X66621149Y-52139571D01*
X66679833Y-51984266D01*
X66719731Y-51878680D01*
X106688867Y-51878680D01*
X106689164Y-51883833D01*
X106689164Y-51883836D01*
X106699270Y-52059116D01*
X106702890Y-52121892D01*
X106704027Y-52126938D01*
X106704028Y-52126944D01*
X106726975Y-52228767D01*
X106756448Y-52359547D01*
X106758390Y-52364329D01*
X106758391Y-52364333D01*
X106841460Y-52568907D01*
X106848102Y-52585264D01*
X106975391Y-52792981D01*
X107134897Y-52977119D01*
X107322334Y-53132733D01*
X107532671Y-53255643D01*
X107537496Y-53257485D01*
X107537497Y-53257486D01*
X107553649Y-53263654D01*
X107760258Y-53342551D01*
X107765324Y-53343582D01*
X107765325Y-53343582D01*
X107822482Y-53355211D01*
X107998983Y-53391120D01*
X108136350Y-53396157D01*
X108237272Y-53399858D01*
X108237276Y-53399858D01*
X108242436Y-53400047D01*
X108247556Y-53399391D01*
X108247558Y-53399391D01*
X108478949Y-53369749D01*
X108478950Y-53369749D01*
X108484077Y-53369092D01*
X108495997Y-53365516D01*
X108712464Y-53300572D01*
X108717417Y-53299086D01*
X108722056Y-53296813D01*
X108722062Y-53296811D01*
X108931556Y-53194181D01*
X108931559Y-53194179D01*
X108936191Y-53191910D01*
X108994372Y-53150410D01*
X109130315Y-53053444D01*
X109130319Y-53053441D01*
X109134523Y-53050442D01*
X109180204Y-53004920D01*
X109303424Y-52882129D01*
X109303428Y-52882124D01*
X109307085Y-52878480D01*
X109368523Y-52792981D01*
X109446226Y-52684845D01*
X109449245Y-52680644D01*
X109557184Y-52462245D01*
X109596836Y-52331736D01*
X109626500Y-52234103D01*
X109626501Y-52234097D01*
X109628004Y-52229151D01*
X109636584Y-52163980D01*
X109665307Y-52099052D01*
X109724572Y-52059961D01*
X109795563Y-52059116D01*
X109855742Y-52096786D01*
X109862333Y-52104862D01*
X109881716Y-52130725D01*
X109894276Y-52143285D01*
X109996351Y-52219786D01*
X110011946Y-52228324D01*
X110132394Y-52273478D01*
X110147649Y-52277105D01*
X110198514Y-52282631D01*
X110205328Y-52283000D01*
X110231885Y-52283000D01*
X110247124Y-52278525D01*
X110248329Y-52277135D01*
X110250000Y-52269452D01*
X110250000Y-52133884D01*
X110270002Y-52065763D01*
X110323658Y-52019270D01*
X110393932Y-52009166D01*
X110458512Y-52038660D01*
X110476825Y-52058317D01*
X110536739Y-52138261D01*
X110543919Y-52143642D01*
X110600760Y-52186242D01*
X110643275Y-52243101D01*
X110646091Y-52251570D01*
X110654475Y-52280123D01*
X110655865Y-52281328D01*
X110663548Y-52282999D01*
X110694669Y-52282999D01*
X110701490Y-52282629D01*
X110760207Y-52276252D01*
X110760505Y-52278998D01*
X110789446Y-52278940D01*
X110789684Y-52276745D01*
X110843867Y-52282631D01*
X110851866Y-52283500D01*
X111348134Y-52283500D01*
X111356134Y-52282631D01*
X111410316Y-52276745D01*
X111410580Y-52279174D01*
X111439420Y-52279174D01*
X111439684Y-52276745D01*
X111493867Y-52282631D01*
X111501866Y-52283500D01*
X111998134Y-52283500D01*
X112006134Y-52282631D01*
X112060316Y-52276745D01*
X112060580Y-52279174D01*
X112089420Y-52279174D01*
X112089684Y-52276745D01*
X112143867Y-52282631D01*
X112151866Y-52283500D01*
X112648134Y-52283500D01*
X112656134Y-52282631D01*
X112710316Y-52276745D01*
X112710580Y-52279174D01*
X112739420Y-52279174D01*
X112739684Y-52276745D01*
X112793867Y-52282631D01*
X112801866Y-52283500D01*
X113298134Y-52283500D01*
X113360316Y-52276745D01*
X113496705Y-52225615D01*
X113613261Y-52138261D01*
X113636605Y-52107113D01*
X113693464Y-52064600D01*
X113764283Y-52059575D01*
X113826576Y-52093635D01*
X113860347Y-52154979D01*
X113888335Y-52279174D01*
X113901841Y-52339102D01*
X113906448Y-52359547D01*
X113908390Y-52364329D01*
X113908391Y-52364333D01*
X113991460Y-52568907D01*
X113998102Y-52585264D01*
X114125391Y-52792981D01*
X114284897Y-52977119D01*
X114472334Y-53132733D01*
X114682671Y-53255643D01*
X114687496Y-53257485D01*
X114687497Y-53257486D01*
X114703649Y-53263654D01*
X114910258Y-53342551D01*
X114915324Y-53343582D01*
X114915325Y-53343582D01*
X114972482Y-53355211D01*
X115148983Y-53391120D01*
X115286350Y-53396157D01*
X115387272Y-53399858D01*
X115387276Y-53399858D01*
X115392436Y-53400047D01*
X115397556Y-53399391D01*
X115397558Y-53399391D01*
X115628949Y-53369749D01*
X115628950Y-53369749D01*
X115634077Y-53369092D01*
X115645997Y-53365516D01*
X115862464Y-53300572D01*
X115867417Y-53299086D01*
X115872056Y-53296813D01*
X115872062Y-53296811D01*
X116081556Y-53194181D01*
X116081559Y-53194179D01*
X116086191Y-53191910D01*
X116144372Y-53150410D01*
X116280315Y-53053444D01*
X116280319Y-53053441D01*
X116284523Y-53050442D01*
X116330204Y-53004920D01*
X116453424Y-52882129D01*
X116453428Y-52882124D01*
X116457085Y-52878480D01*
X116518523Y-52792981D01*
X116596226Y-52684845D01*
X116599245Y-52680644D01*
X116707184Y-52462245D01*
X116746836Y-52331736D01*
X116776500Y-52234103D01*
X116776501Y-52234097D01*
X116778004Y-52229151D01*
X116799514Y-52065763D01*
X116809365Y-51990941D01*
X116809365Y-51990935D01*
X116809802Y-51987619D01*
X116811577Y-51915000D01*
X116803020Y-51810916D01*
X116792039Y-51677354D01*
X116792038Y-51677348D01*
X116791615Y-51672203D01*
X116732267Y-51435927D01*
X116646151Y-51237874D01*
X156687190Y-51237874D01*
X156703735Y-51524820D01*
X156704560Y-51529025D01*
X156704561Y-51529033D01*
X156726642Y-51641579D01*
X156759070Y-51806865D01*
X156760457Y-51810916D01*
X156845724Y-52059961D01*
X156852171Y-52078792D01*
X156884787Y-52143642D01*
X156951913Y-52277105D01*
X156981316Y-52335567D01*
X156983742Y-52339096D01*
X156983745Y-52339102D01*
X157022587Y-52395617D01*
X157144114Y-52572439D01*
X157337553Y-52785026D01*
X157340841Y-52787775D01*
X157554761Y-52966641D01*
X157554766Y-52966645D01*
X157558053Y-52969393D01*
X157679794Y-53045761D01*
X157797895Y-53119846D01*
X157797899Y-53119848D01*
X157801535Y-53122129D01*
X157805445Y-53123894D01*
X157805446Y-53123895D01*
X157825020Y-53132733D01*
X158063493Y-53240407D01*
X158339079Y-53322040D01*
X158343313Y-53322688D01*
X158343318Y-53322689D01*
X158594095Y-53361063D01*
X158623195Y-53365516D01*
X158769580Y-53367815D01*
X158906291Y-53369963D01*
X158906297Y-53369963D01*
X158910582Y-53370030D01*
X159195923Y-53335500D01*
X159473937Y-53262565D01*
X159477897Y-53260925D01*
X159477902Y-53260923D01*
X159651751Y-53188912D01*
X159739481Y-53152573D01*
X159773434Y-53132733D01*
X159983943Y-53009721D01*
X159983944Y-53009721D01*
X159987641Y-53007560D01*
X160031447Y-52973212D01*
X160210451Y-52832854D01*
X160213823Y-52830210D01*
X160249901Y-52792981D01*
X160410861Y-52626882D01*
X160413844Y-52623804D01*
X160416377Y-52620356D01*
X160416381Y-52620351D01*
X160581464Y-52395617D01*
X160584002Y-52392162D01*
X160721149Y-52139571D01*
X160779833Y-51984266D01*
X160821227Y-51874721D01*
X160821228Y-51874718D01*
X160822745Y-51870703D01*
X160867028Y-51677354D01*
X160885954Y-51594718D01*
X160885955Y-51594714D01*
X160886912Y-51590534D01*
X160893661Y-51514922D01*
X160912243Y-51306715D01*
X160912463Y-51304250D01*
X160912926Y-51260000D01*
X160912092Y-51247766D01*
X160893669Y-50977520D01*
X160893668Y-50977514D01*
X160893377Y-50973243D01*
X160888841Y-50951337D01*
X160835962Y-50695998D01*
X160835091Y-50691792D01*
X160830916Y-50680000D01*
X160740579Y-50424897D01*
X160739148Y-50420856D01*
X160607321Y-50165447D01*
X160442052Y-49930293D01*
X160368603Y-49851252D01*
X160249318Y-49722886D01*
X160249315Y-49722883D01*
X160246397Y-49719743D01*
X160023978Y-49537695D01*
X159778910Y-49387517D01*
X159774993Y-49385798D01*
X159774990Y-49385796D01*
X159628919Y-49321676D01*
X159515728Y-49271989D01*
X159511600Y-49270813D01*
X159511597Y-49270812D01*
X159425693Y-49246342D01*
X159239302Y-49193247D01*
X159235060Y-49192643D01*
X159235054Y-49192642D01*
X158958998Y-49153353D01*
X158954747Y-49152748D01*
X158803246Y-49151955D01*
X158671614Y-49151265D01*
X158671608Y-49151265D01*
X158667328Y-49151243D01*
X158663083Y-49151802D01*
X158663081Y-49151802D01*
X158597784Y-49160399D01*
X158382365Y-49188760D01*
X158105129Y-49264603D01*
X157840752Y-49377369D01*
X157837071Y-49379572D01*
X157597806Y-49522768D01*
X157597802Y-49522771D01*
X157594124Y-49524972D01*
X157590781Y-49527650D01*
X157590777Y-49527653D01*
X157579178Y-49536946D01*
X157369811Y-49704681D01*
X157171963Y-49913170D01*
X157004240Y-50146581D01*
X156869746Y-50400596D01*
X156770971Y-50670512D01*
X156709741Y-50951337D01*
X156687698Y-51231415D01*
X156687190Y-51237874D01*
X116646151Y-51237874D01*
X116635125Y-51212517D01*
X116502800Y-51007972D01*
X116485126Y-50988548D01*
X116342321Y-50831608D01*
X116342319Y-50831607D01*
X116338843Y-50827786D01*
X116334792Y-50824587D01*
X116334788Y-50824583D01*
X116151714Y-50680000D01*
X116151710Y-50679998D01*
X116147659Y-50676798D01*
X115934382Y-50559063D01*
X115704740Y-50477743D01*
X115674374Y-50472334D01*
X115469987Y-50435926D01*
X115469983Y-50435926D01*
X115464899Y-50435020D01*
X115385150Y-50434046D01*
X115226472Y-50432107D01*
X115226470Y-50432107D01*
X115221302Y-50432044D01*
X114980489Y-50468894D01*
X114866646Y-50506103D01*
X114753846Y-50542971D01*
X114753840Y-50542974D01*
X114748928Y-50544579D01*
X114744342Y-50546966D01*
X114744338Y-50546968D01*
X114671025Y-50585133D01*
X114536403Y-50655213D01*
X114466744Y-50668926D01*
X114400729Y-50642801D01*
X114359317Y-50585133D01*
X114355658Y-50514231D01*
X114364071Y-50490109D01*
X114375655Y-50465325D01*
X114377561Y-50461425D01*
X114410769Y-50396392D01*
X114412508Y-50389284D01*
X114414607Y-50383641D01*
X114416524Y-50377878D01*
X114419622Y-50371250D01*
X114434487Y-50299783D01*
X114435457Y-50295499D01*
X114452808Y-50224590D01*
X114453500Y-50213436D01*
X114453536Y-50213438D01*
X114453775Y-50209445D01*
X114454149Y-50205253D01*
X114455640Y-50198085D01*
X114453546Y-50120679D01*
X114453500Y-50117272D01*
X114453500Y-47335399D01*
X114470381Y-47272399D01*
X114526223Y-47175679D01*
X114526224Y-47175678D01*
X114529527Y-47169956D01*
X114588542Y-46988328D01*
X114608504Y-46798400D01*
X114588542Y-46608472D01*
X114529527Y-46426844D01*
X114434040Y-46261456D01*
X114306253Y-46119534D01*
X114151752Y-46007282D01*
X114145724Y-46004598D01*
X114145722Y-46004597D01*
X113983319Y-45932291D01*
X113983318Y-45932291D01*
X113977288Y-45929606D01*
X113883888Y-45909753D01*
X113796944Y-45891272D01*
X113796939Y-45891272D01*
X113790487Y-45889900D01*
X113599513Y-45889900D01*
X113593061Y-45891272D01*
X113593056Y-45891272D01*
X113506112Y-45909753D01*
X113412712Y-45929606D01*
X113406682Y-45932291D01*
X113406681Y-45932291D01*
X113244278Y-46004597D01*
X113244276Y-46004598D01*
X113238248Y-46007282D01*
X113083747Y-46119534D01*
X112955960Y-46261456D01*
X112860473Y-46426844D01*
X112801458Y-46608472D01*
X112781496Y-46798400D01*
X112801458Y-46988328D01*
X112860473Y-47169956D01*
X112863776Y-47175678D01*
X112863777Y-47175679D01*
X112919619Y-47272399D01*
X112936500Y-47335399D01*
X112936500Y-49140500D01*
X112916498Y-49208621D01*
X112862842Y-49255114D01*
X112810500Y-49266500D01*
X112801866Y-49266500D01*
X112798469Y-49266869D01*
X112762173Y-49270812D01*
X112739684Y-49273255D01*
X112739420Y-49270826D01*
X112710580Y-49270826D01*
X112710316Y-49273255D01*
X112651531Y-49266869D01*
X112648134Y-49266500D01*
X112151866Y-49266500D01*
X112148469Y-49266869D01*
X112112173Y-49270812D01*
X112089684Y-49273255D01*
X112089420Y-49270826D01*
X112060580Y-49270826D01*
X112060316Y-49273255D01*
X112001531Y-49266869D01*
X111998134Y-49266500D01*
X111501866Y-49266500D01*
X111498469Y-49266869D01*
X111462173Y-49270812D01*
X111439684Y-49273255D01*
X111439420Y-49270826D01*
X111410580Y-49270826D01*
X111410316Y-49273255D01*
X111351531Y-49266869D01*
X111348134Y-49266500D01*
X110851866Y-49266500D01*
X110848469Y-49266869D01*
X110812173Y-49270812D01*
X110789684Y-49273255D01*
X110789452Y-49271116D01*
X110760488Y-49271166D01*
X110760207Y-49273748D01*
X110701486Y-49267369D01*
X110694672Y-49267000D01*
X110668115Y-49267000D01*
X110652876Y-49271475D01*
X110651671Y-49272865D01*
X110647946Y-49289991D01*
X110613922Y-49352303D01*
X110600390Y-49364035D01*
X110569058Y-49387517D01*
X110536739Y-49411739D01*
X110531358Y-49418919D01*
X110476826Y-49491681D01*
X110419967Y-49534196D01*
X110349149Y-49539222D01*
X110286855Y-49505162D01*
X110252865Y-49442831D01*
X110250000Y-49416116D01*
X110250000Y-49285116D01*
X110245525Y-49269877D01*
X110244135Y-49268672D01*
X110236452Y-49267001D01*
X110205331Y-49267001D01*
X110198510Y-49267371D01*
X110147648Y-49272895D01*
X110132396Y-49276521D01*
X110011946Y-49321676D01*
X109996351Y-49330214D01*
X109894276Y-49406715D01*
X109881715Y-49419276D01*
X109805214Y-49521351D01*
X109796676Y-49536946D01*
X109751522Y-49657394D01*
X109747895Y-49672649D01*
X109742369Y-49723514D01*
X109742000Y-49730328D01*
X109742000Y-50556885D01*
X109746475Y-50572124D01*
X109747865Y-50573329D01*
X109755548Y-50575000D01*
X110250000Y-50575000D01*
X110250000Y-50575552D01*
X110301000Y-50575553D01*
X110360725Y-50613938D01*
X110390218Y-50678519D01*
X110391500Y-50696449D01*
X110391500Y-50852372D01*
X110371498Y-50920493D01*
X110317842Y-50966986D01*
X110247568Y-50977090D01*
X110238715Y-50975492D01*
X110236453Y-50975000D01*
X109760116Y-50975000D01*
X109744877Y-50979475D01*
X109743672Y-50980865D01*
X109742001Y-50988548D01*
X109742001Y-51197523D01*
X109721999Y-51265644D01*
X109668343Y-51312137D01*
X109598069Y-51322241D01*
X109533489Y-51292747D01*
X109500452Y-51247766D01*
X109487190Y-51217267D01*
X109485125Y-51212517D01*
X109352800Y-51007972D01*
X109335126Y-50988548D01*
X109192321Y-50831608D01*
X109192319Y-50831607D01*
X109188843Y-50827786D01*
X109184792Y-50824587D01*
X109184788Y-50824583D01*
X109001714Y-50680000D01*
X109001710Y-50679998D01*
X108997659Y-50676798D01*
X108784382Y-50559063D01*
X108554740Y-50477743D01*
X108524374Y-50472334D01*
X108319987Y-50435926D01*
X108319983Y-50435926D01*
X108314899Y-50435020D01*
X108235150Y-50434046D01*
X108076472Y-50432107D01*
X108076470Y-50432107D01*
X108071302Y-50432044D01*
X107830489Y-50468894D01*
X107716646Y-50506103D01*
X107603846Y-50542971D01*
X107603840Y-50542974D01*
X107598928Y-50544579D01*
X107594342Y-50546966D01*
X107594338Y-50546968D01*
X107387431Y-50654678D01*
X107382838Y-50657069D01*
X107188023Y-50803341D01*
X107141168Y-50852372D01*
X107023512Y-50975492D01*
X107019713Y-50979467D01*
X107016799Y-50983739D01*
X107016798Y-50983740D01*
X106983222Y-51032960D01*
X106882429Y-51180717D01*
X106867668Y-51212517D01*
X106814927Y-51326139D01*
X106779858Y-51401688D01*
X106714754Y-51636443D01*
X106688867Y-51878680D01*
X66719731Y-51878680D01*
X66721227Y-51874721D01*
X66721228Y-51874718D01*
X66722745Y-51870703D01*
X66767028Y-51677354D01*
X66785954Y-51594718D01*
X66785955Y-51594714D01*
X66786912Y-51590534D01*
X66793661Y-51514922D01*
X66812243Y-51306715D01*
X66812463Y-51304250D01*
X66812926Y-51260000D01*
X66812092Y-51247766D01*
X66793669Y-50977520D01*
X66793668Y-50977514D01*
X66793377Y-50973243D01*
X66788841Y-50951337D01*
X66735962Y-50695998D01*
X66735091Y-50691792D01*
X66730916Y-50680000D01*
X66640579Y-50424897D01*
X66639148Y-50420856D01*
X66507321Y-50165447D01*
X66342052Y-49930293D01*
X66268603Y-49851252D01*
X66149318Y-49722886D01*
X66149315Y-49722883D01*
X66146397Y-49719743D01*
X65923978Y-49537695D01*
X65678910Y-49387517D01*
X65674993Y-49385798D01*
X65674990Y-49385796D01*
X65528919Y-49321676D01*
X65415728Y-49271989D01*
X65411600Y-49270813D01*
X65411597Y-49270812D01*
X65325693Y-49246342D01*
X65139302Y-49193247D01*
X65135060Y-49192643D01*
X65135054Y-49192642D01*
X64858998Y-49153353D01*
X64854747Y-49152748D01*
X64703246Y-49151955D01*
X64571614Y-49151265D01*
X64571608Y-49151265D01*
X64567328Y-49151243D01*
X64563083Y-49151802D01*
X64563081Y-49151802D01*
X64497784Y-49160399D01*
X64282365Y-49188760D01*
X64005129Y-49264603D01*
X63740752Y-49377369D01*
X63737071Y-49379572D01*
X63497806Y-49522768D01*
X63497802Y-49522771D01*
X63494124Y-49524972D01*
X63490781Y-49527650D01*
X63490777Y-49527653D01*
X63479178Y-49536946D01*
X63269811Y-49704681D01*
X63071963Y-49913170D01*
X62904240Y-50146581D01*
X62769746Y-50400596D01*
X62670971Y-50670512D01*
X62609741Y-50951337D01*
X62587698Y-51231415D01*
X62587190Y-51237874D01*
X54008000Y-51237874D01*
X54008000Y-42049328D01*
X54009500Y-42029943D01*
X54011805Y-42015141D01*
X54011805Y-42015139D01*
X54013186Y-42006270D01*
X54012022Y-41997366D01*
X54011195Y-41991041D01*
X54010452Y-41965713D01*
X54022543Y-41796657D01*
X54025101Y-41778863D01*
X54066520Y-41588462D01*
X54071586Y-41571212D01*
X54139682Y-41388642D01*
X54147149Y-41372290D01*
X54240531Y-41201271D01*
X54250248Y-41186152D01*
X54367023Y-41030158D01*
X54378796Y-41016572D01*
X54516572Y-40878796D01*
X54530158Y-40867023D01*
X54576484Y-40832344D01*
X54686152Y-40750248D01*
X54701266Y-40740534D01*
X54806980Y-40682810D01*
X54872290Y-40647149D01*
X54888642Y-40639682D01*
X55071212Y-40571586D01*
X55088460Y-40566521D01*
X55278863Y-40525101D01*
X55296658Y-40522543D01*
X55345557Y-40519046D01*
X55458631Y-40510959D01*
X55476533Y-40511703D01*
X55484858Y-40511805D01*
X55493730Y-40513186D01*
X55502632Y-40512022D01*
X55502635Y-40512022D01*
X55525251Y-40509064D01*
X55541589Y-40508000D01*
X167950672Y-40508000D01*
X167970056Y-40509500D01*
G37*
%TD.AperFunction*%
%TD*%
%TA.AperFunction,NonConductor*%
G36*
X113935956Y-51066091D02*
G01*
X113992792Y-51108638D01*
X114017603Y-51175158D01*
X114006212Y-51237197D01*
X113998788Y-51253191D01*
X113951964Y-51306558D01*
X113883721Y-51326139D01*
X113815726Y-51305716D01*
X113769565Y-51251774D01*
X113758500Y-51200141D01*
X113758500Y-51191571D01*
X113778502Y-51123450D01*
X113795405Y-51102476D01*
X113802829Y-51095052D01*
X113865141Y-51061026D01*
X113935956Y-51066091D01*
G37*
%TD.AperFunction*%
M02*
