%TF.GenerationSoftware,KiCad,Pcbnew,(6.0.1)*%
%TF.CreationDate,2022-12-13T21:33:40+01:00*%
%TF.ProjectId,SRD_Enhanced,5352445f-456e-4686-916e-6365642e6b69,rev?*%
%TF.SameCoordinates,Original*%
%TF.FileFunction,Legend,Top*%
%TF.FilePolarity,Positive*%
%FSLAX46Y46*%
G04 Gerber Fmt 4.6, Leading zero omitted, Abs format (unit mm)*
G04 Created by KiCad (PCBNEW (6.0.1)) date 2022-12-13 21:33:40*
%MOMM*%
%LPD*%
G01*
G04 APERTURE LIST*
%ADD10C,0.150000*%
%ADD11C,0.254000*%
%ADD12C,0.200000*%
%ADD13C,0.100000*%
%ADD14C,0.120000*%
G04 APERTURE END LIST*
D10*
X131178571Y-73369047D02*
X131226190Y-73226190D01*
X131273809Y-73178571D01*
X131369047Y-73130952D01*
X131511904Y-73130952D01*
X131607142Y-73178571D01*
X131654761Y-73226190D01*
X131702380Y-73321428D01*
X131702380Y-73702380D01*
X130702380Y-73702380D01*
X130702380Y-73369047D01*
X130750000Y-73273809D01*
X130797619Y-73226190D01*
X130892857Y-73178571D01*
X130988095Y-73178571D01*
X131083333Y-73226190D01*
X131130952Y-73273809D01*
X131178571Y-73369047D01*
X131178571Y-73702380D01*
X131702380Y-72559523D02*
X131654761Y-72654761D01*
X131607142Y-72702380D01*
X131511904Y-72750000D01*
X131226190Y-72750000D01*
X131130952Y-72702380D01*
X131083333Y-72654761D01*
X131035714Y-72559523D01*
X131035714Y-72416666D01*
X131083333Y-72321428D01*
X131130952Y-72273809D01*
X131226190Y-72226190D01*
X131511904Y-72226190D01*
X131607142Y-72273809D01*
X131654761Y-72321428D01*
X131702380Y-72416666D01*
X131702380Y-72559523D01*
X131702380Y-71654761D02*
X131654761Y-71750000D01*
X131607142Y-71797619D01*
X131511904Y-71845238D01*
X131226190Y-71845238D01*
X131130952Y-71797619D01*
X131083333Y-71750000D01*
X131035714Y-71654761D01*
X131035714Y-71511904D01*
X131083333Y-71416666D01*
X131130952Y-71369047D01*
X131226190Y-71321428D01*
X131511904Y-71321428D01*
X131607142Y-71369047D01*
X131654761Y-71416666D01*
X131702380Y-71511904D01*
X131702380Y-71654761D01*
X131035714Y-71035714D02*
X131035714Y-70654761D01*
X130702380Y-70892857D02*
X131559523Y-70892857D01*
X131654761Y-70845238D01*
X131702380Y-70750000D01*
X131702380Y-70654761D01*
X150404761Y-74333333D02*
X150452380Y-74190476D01*
X150452380Y-73952380D01*
X150404761Y-73857142D01*
X150357142Y-73809523D01*
X150261904Y-73761904D01*
X150166666Y-73761904D01*
X150071428Y-73809523D01*
X150023809Y-73857142D01*
X149976190Y-73952380D01*
X149928571Y-74142857D01*
X149880952Y-74238095D01*
X149833333Y-74285714D01*
X149738095Y-74333333D01*
X149642857Y-74333333D01*
X149547619Y-74285714D01*
X149500000Y-74238095D01*
X149452380Y-74142857D01*
X149452380Y-73904761D01*
X149500000Y-73761904D01*
X150404761Y-72952380D02*
X150452380Y-73047619D01*
X150452380Y-73238095D01*
X150404761Y-73333333D01*
X150309523Y-73380952D01*
X149928571Y-73380952D01*
X149833333Y-73333333D01*
X149785714Y-73238095D01*
X149785714Y-73047619D01*
X149833333Y-72952380D01*
X149928571Y-72904761D01*
X150023809Y-72904761D01*
X150119047Y-73380952D01*
X150452380Y-72476190D02*
X149785714Y-72476190D01*
X149976190Y-72476190D02*
X149880952Y-72428571D01*
X149833333Y-72380952D01*
X149785714Y-72285714D01*
X149785714Y-72190476D01*
X150452380Y-71857142D02*
X149785714Y-71857142D01*
X149452380Y-71857142D02*
X149500000Y-71904761D01*
X149547619Y-71857142D01*
X149500000Y-71809523D01*
X149452380Y-71857142D01*
X149547619Y-71857142D01*
X150452380Y-70952380D02*
X149928571Y-70952380D01*
X149833333Y-71000000D01*
X149785714Y-71095238D01*
X149785714Y-71285714D01*
X149833333Y-71380952D01*
X150404761Y-70952380D02*
X150452380Y-71047619D01*
X150452380Y-71285714D01*
X150404761Y-71380952D01*
X150309523Y-71428571D01*
X150214285Y-71428571D01*
X150119047Y-71380952D01*
X150071428Y-71285714D01*
X150071428Y-71047619D01*
X150023809Y-70952380D01*
X150452380Y-70333333D02*
X150404761Y-70428571D01*
X150309523Y-70476190D01*
X149452380Y-70476190D01*
X149452380Y-69000000D02*
X149452380Y-68904761D01*
X149500000Y-68809523D01*
X149547619Y-68761904D01*
X149642857Y-68714285D01*
X149833333Y-68666666D01*
X150071428Y-68666666D01*
X150261904Y-68714285D01*
X150357142Y-68761904D01*
X150404761Y-68809523D01*
X150452380Y-68904761D01*
X150452380Y-69000000D01*
X150404761Y-69095238D01*
X150357142Y-69142857D01*
X150261904Y-69190476D01*
X150071428Y-69238095D01*
X149833333Y-69238095D01*
X149642857Y-69190476D01*
X149547619Y-69142857D01*
X149500000Y-69095238D01*
X149452380Y-69000000D01*
X74345238Y-58416666D02*
X74297619Y-58559523D01*
X74297619Y-58797619D01*
X74345238Y-58892857D01*
X74392857Y-58940476D01*
X74488095Y-58988095D01*
X74583333Y-58988095D01*
X74678571Y-58940476D01*
X74726190Y-58892857D01*
X74773809Y-58797619D01*
X74821428Y-58607142D01*
X74869047Y-58511904D01*
X74916666Y-58464285D01*
X75011904Y-58416666D01*
X75107142Y-58416666D01*
X75202380Y-58464285D01*
X75250000Y-58511904D01*
X75297619Y-58607142D01*
X75297619Y-58845238D01*
X75250000Y-58988095D01*
X74345238Y-59797619D02*
X74297619Y-59702380D01*
X74297619Y-59511904D01*
X74345238Y-59416666D01*
X74440476Y-59369047D01*
X74821428Y-59369047D01*
X74916666Y-59416666D01*
X74964285Y-59511904D01*
X74964285Y-59702380D01*
X74916666Y-59797619D01*
X74821428Y-59845238D01*
X74726190Y-59845238D01*
X74630952Y-59369047D01*
X74297619Y-60273809D02*
X74964285Y-60273809D01*
X74773809Y-60273809D02*
X74869047Y-60321428D01*
X74916666Y-60369047D01*
X74964285Y-60464285D01*
X74964285Y-60559523D01*
X74297619Y-60892857D02*
X74964285Y-60892857D01*
X75297619Y-60892857D02*
X75250000Y-60845238D01*
X75202380Y-60892857D01*
X75250000Y-60940476D01*
X75297619Y-60892857D01*
X75202380Y-60892857D01*
X74297619Y-61797619D02*
X74821428Y-61797619D01*
X74916666Y-61750000D01*
X74964285Y-61654761D01*
X74964285Y-61464285D01*
X74916666Y-61369047D01*
X74345238Y-61797619D02*
X74297619Y-61702380D01*
X74297619Y-61464285D01*
X74345238Y-61369047D01*
X74440476Y-61321428D01*
X74535714Y-61321428D01*
X74630952Y-61369047D01*
X74678571Y-61464285D01*
X74678571Y-61702380D01*
X74726190Y-61797619D01*
X74297619Y-62416666D02*
X74345238Y-62321428D01*
X74440476Y-62273809D01*
X75297619Y-62273809D01*
X75202380Y-63511904D02*
X75250000Y-63559523D01*
X75297619Y-63654761D01*
X75297619Y-63892857D01*
X75250000Y-63988095D01*
X75202380Y-64035714D01*
X75107142Y-64083333D01*
X75011904Y-64083333D01*
X74869047Y-64035714D01*
X74297619Y-63464285D01*
X74297619Y-64083333D01*
X77297619Y-56559523D02*
X77297619Y-56083333D01*
X76821428Y-56035714D01*
X76869047Y-56083333D01*
X76916666Y-56178571D01*
X76916666Y-56416666D01*
X76869047Y-56511904D01*
X76821428Y-56559523D01*
X76726190Y-56607142D01*
X76488095Y-56607142D01*
X76392857Y-56559523D01*
X76345238Y-56511904D01*
X76297619Y-56416666D01*
X76297619Y-56178571D01*
X76345238Y-56083333D01*
X76392857Y-56035714D01*
X77297619Y-56892857D02*
X76297619Y-57226190D01*
X77297619Y-57559523D01*
X76297619Y-59226190D02*
X76773809Y-58892857D01*
X76297619Y-58654761D02*
X77297619Y-58654761D01*
X77297619Y-59035714D01*
X77250000Y-59130952D01*
X77202380Y-59178571D01*
X77107142Y-59226190D01*
X76964285Y-59226190D01*
X76869047Y-59178571D01*
X76821428Y-59130952D01*
X76773809Y-59035714D01*
X76773809Y-58654761D01*
X77297619Y-59559523D02*
X76297619Y-60226190D01*
X77297619Y-60226190D02*
X76297619Y-59559523D01*
X77297619Y-61226190D02*
X77297619Y-61797619D01*
X76297619Y-61511904D02*
X77297619Y-61511904D01*
X77297619Y-62035714D02*
X76297619Y-62702380D01*
X77297619Y-62702380D02*
X76297619Y-62035714D01*
X77250000Y-64369047D02*
X77297619Y-64273809D01*
X77297619Y-64130952D01*
X77250000Y-63988095D01*
X77154761Y-63892857D01*
X77059523Y-63845238D01*
X76869047Y-63797619D01*
X76726190Y-63797619D01*
X76535714Y-63845238D01*
X76440476Y-63892857D01*
X76345238Y-63988095D01*
X76297619Y-64130952D01*
X76297619Y-64226190D01*
X76345238Y-64369047D01*
X76392857Y-64416666D01*
X76726190Y-64416666D01*
X76726190Y-64226190D01*
X76297619Y-64845238D02*
X77297619Y-64845238D01*
X76297619Y-65416666D01*
X77297619Y-65416666D01*
X76297619Y-65892857D02*
X77297619Y-65892857D01*
X77297619Y-66130952D01*
X77250000Y-66273809D01*
X77154761Y-66369047D01*
X77059523Y-66416666D01*
X76869047Y-66464285D01*
X76726190Y-66464285D01*
X76535714Y-66416666D01*
X76440476Y-66369047D01*
X76345238Y-66273809D01*
X76297619Y-66130952D01*
X76297619Y-65892857D01*
X92702380Y-59738095D02*
X92226190Y-60071428D01*
X92702380Y-60309523D02*
X91702380Y-60309523D01*
X91702380Y-59928571D01*
X91750000Y-59833333D01*
X91797619Y-59785714D01*
X91892857Y-59738095D01*
X92035714Y-59738095D01*
X92130952Y-59785714D01*
X92178571Y-59833333D01*
X92226190Y-59928571D01*
X92226190Y-60309523D01*
X92654761Y-58928571D02*
X92702380Y-59023809D01*
X92702380Y-59214285D01*
X92654761Y-59309523D01*
X92559523Y-59357142D01*
X92178571Y-59357142D01*
X92083333Y-59309523D01*
X92035714Y-59214285D01*
X92035714Y-59023809D01*
X92083333Y-58928571D01*
X92178571Y-58880952D01*
X92273809Y-58880952D01*
X92369047Y-59357142D01*
X92654761Y-58500000D02*
X92702380Y-58404761D01*
X92702380Y-58214285D01*
X92654761Y-58119047D01*
X92559523Y-58071428D01*
X92511904Y-58071428D01*
X92416666Y-58119047D01*
X92369047Y-58214285D01*
X92369047Y-58357142D01*
X92321428Y-58452380D01*
X92226190Y-58500000D01*
X92178571Y-58500000D01*
X92083333Y-58452380D01*
X92035714Y-58357142D01*
X92035714Y-58214285D01*
X92083333Y-58119047D01*
X92654761Y-57261904D02*
X92702380Y-57357142D01*
X92702380Y-57547619D01*
X92654761Y-57642857D01*
X92559523Y-57690476D01*
X92178571Y-57690476D01*
X92083333Y-57642857D01*
X92035714Y-57547619D01*
X92035714Y-57357142D01*
X92083333Y-57261904D01*
X92178571Y-57214285D01*
X92273809Y-57214285D01*
X92369047Y-57690476D01*
X92035714Y-56928571D02*
X92035714Y-56547619D01*
X91702380Y-56785714D02*
X92559523Y-56785714D01*
X92654761Y-56738095D01*
X92702380Y-56642857D01*
X92702380Y-56547619D01*
X147452380Y-77238095D02*
X147452380Y-76619047D01*
X147833333Y-76952380D01*
X147833333Y-76809523D01*
X147880952Y-76714285D01*
X147928571Y-76666666D01*
X148023809Y-76619047D01*
X148261904Y-76619047D01*
X148357142Y-76666666D01*
X148404761Y-76714285D01*
X148452380Y-76809523D01*
X148452380Y-77095238D01*
X148404761Y-77190476D01*
X148357142Y-77238095D01*
X147452380Y-76333333D02*
X148452380Y-76000000D01*
X147452380Y-75666666D01*
X147452380Y-75428571D02*
X147452380Y-74809523D01*
X147833333Y-75142857D01*
X147833333Y-75000000D01*
X147880952Y-74904761D01*
X147928571Y-74857142D01*
X148023809Y-74809523D01*
X148261904Y-74809523D01*
X148357142Y-74857142D01*
X148404761Y-74904761D01*
X148452380Y-75000000D01*
X148452380Y-75285714D01*
X148404761Y-75380952D01*
X148357142Y-75428571D01*
X148452380Y-73047619D02*
X147976190Y-73380952D01*
X148452380Y-73619047D02*
X147452380Y-73619047D01*
X147452380Y-73238095D01*
X147500000Y-73142857D01*
X147547619Y-73095238D01*
X147642857Y-73047619D01*
X147785714Y-73047619D01*
X147880952Y-73095238D01*
X147928571Y-73142857D01*
X147976190Y-73238095D01*
X147976190Y-73619047D01*
X147452380Y-72714285D02*
X148452380Y-72047619D01*
X147452380Y-72047619D02*
X148452380Y-72714285D01*
X147452380Y-71047619D02*
X147452380Y-70476190D01*
X148452380Y-70761904D02*
X147452380Y-70761904D01*
X147452380Y-70238095D02*
X148452380Y-69571428D01*
X147452380Y-69571428D02*
X148452380Y-70238095D01*
X147500000Y-67904761D02*
X147452380Y-68000000D01*
X147452380Y-68142857D01*
X147500000Y-68285714D01*
X147595238Y-68380952D01*
X147690476Y-68428571D01*
X147880952Y-68476190D01*
X148023809Y-68476190D01*
X148214285Y-68428571D01*
X148309523Y-68380952D01*
X148404761Y-68285714D01*
X148452380Y-68142857D01*
X148452380Y-68047619D01*
X148404761Y-67904761D01*
X148357142Y-67857142D01*
X148023809Y-67857142D01*
X148023809Y-68047619D01*
X148452380Y-67428571D02*
X147452380Y-67428571D01*
X148452380Y-66857142D01*
X147452380Y-66857142D01*
X148452380Y-66380952D02*
X147452380Y-66380952D01*
X147452380Y-66142857D01*
X147500000Y-66000000D01*
X147595238Y-65904761D01*
X147690476Y-65857142D01*
X147880952Y-65809523D01*
X148023809Y-65809523D01*
X148214285Y-65857142D01*
X148309523Y-65904761D01*
X148404761Y-66000000D01*
X148452380Y-66142857D01*
X148452380Y-66380952D01*
D11*
%TO.C,S2*%
X128264047Y-72967619D02*
X128324523Y-72786190D01*
X128324523Y-72483809D01*
X128264047Y-72362857D01*
X128203571Y-72302380D01*
X128082619Y-72241904D01*
X127961666Y-72241904D01*
X127840714Y-72302380D01*
X127780238Y-72362857D01*
X127719761Y-72483809D01*
X127659285Y-72725714D01*
X127598809Y-72846666D01*
X127538333Y-72907142D01*
X127417380Y-72967619D01*
X127296428Y-72967619D01*
X127175476Y-72907142D01*
X127115000Y-72846666D01*
X127054523Y-72725714D01*
X127054523Y-72423333D01*
X127115000Y-72241904D01*
X127175476Y-71758095D02*
X127115000Y-71697619D01*
X127054523Y-71576666D01*
X127054523Y-71274285D01*
X127115000Y-71153333D01*
X127175476Y-71092857D01*
X127296428Y-71032380D01*
X127417380Y-71032380D01*
X127598809Y-71092857D01*
X128324523Y-71818571D01*
X128324523Y-71032380D01*
%TO.C,J4*%
X111054523Y-94673333D02*
X111961666Y-94673333D01*
X112143095Y-94733809D01*
X112264047Y-94854761D01*
X112324523Y-95036190D01*
X112324523Y-95157142D01*
X111477857Y-93524285D02*
X112324523Y-93524285D01*
X110994047Y-93826666D02*
X111901190Y-94129047D01*
X111901190Y-93342857D01*
D10*
%TO.C,C2*%
X138177142Y-58216666D02*
X138224761Y-58264285D01*
X138272380Y-58407142D01*
X138272380Y-58502380D01*
X138224761Y-58645238D01*
X138129523Y-58740476D01*
X138034285Y-58788095D01*
X137843809Y-58835714D01*
X137700952Y-58835714D01*
X137510476Y-58788095D01*
X137415238Y-58740476D01*
X137320000Y-58645238D01*
X137272380Y-58502380D01*
X137272380Y-58407142D01*
X137320000Y-58264285D01*
X137367619Y-58216666D01*
X137367619Y-57835714D02*
X137320000Y-57788095D01*
X137272380Y-57692857D01*
X137272380Y-57454761D01*
X137320000Y-57359523D01*
X137367619Y-57311904D01*
X137462857Y-57264285D01*
X137558095Y-57264285D01*
X137700952Y-57311904D01*
X138272380Y-57883333D01*
X138272380Y-57264285D01*
D11*
%TO.C,S1*%
X96264047Y-59067619D02*
X96324523Y-58886190D01*
X96324523Y-58583809D01*
X96264047Y-58462857D01*
X96203571Y-58402380D01*
X96082619Y-58341904D01*
X95961666Y-58341904D01*
X95840714Y-58402380D01*
X95780238Y-58462857D01*
X95719761Y-58583809D01*
X95659285Y-58825714D01*
X95598809Y-58946666D01*
X95538333Y-59007142D01*
X95417380Y-59067619D01*
X95296428Y-59067619D01*
X95175476Y-59007142D01*
X95115000Y-58946666D01*
X95054523Y-58825714D01*
X95054523Y-58523333D01*
X95115000Y-58341904D01*
X96324523Y-57132380D02*
X96324523Y-57858095D01*
X96324523Y-57495238D02*
X95054523Y-57495238D01*
X95235952Y-57616190D01*
X95356904Y-57737142D01*
X95417380Y-57858095D01*
D10*
%TO.C,R1*%
X100852380Y-92916666D02*
X100376190Y-93250000D01*
X100852380Y-93488095D02*
X99852380Y-93488095D01*
X99852380Y-93107142D01*
X99900000Y-93011904D01*
X99947619Y-92964285D01*
X100042857Y-92916666D01*
X100185714Y-92916666D01*
X100280952Y-92964285D01*
X100328571Y-93011904D01*
X100376190Y-93107142D01*
X100376190Y-93488095D01*
X100852380Y-91964285D02*
X100852380Y-92535714D01*
X100852380Y-92250000D02*
X99852380Y-92250000D01*
X99995238Y-92345238D01*
X100090476Y-92440476D01*
X100138095Y-92535714D01*
%TO.C,R3*%
X126420833Y-80302380D02*
X126087500Y-79826190D01*
X125849404Y-80302380D02*
X125849404Y-79302380D01*
X126230357Y-79302380D01*
X126325595Y-79350000D01*
X126373214Y-79397619D01*
X126420833Y-79492857D01*
X126420833Y-79635714D01*
X126373214Y-79730952D01*
X126325595Y-79778571D01*
X126230357Y-79826190D01*
X125849404Y-79826190D01*
X126754166Y-79302380D02*
X127373214Y-79302380D01*
X127039880Y-79683333D01*
X127182738Y-79683333D01*
X127277976Y-79730952D01*
X127325595Y-79778571D01*
X127373214Y-79873809D01*
X127373214Y-80111904D01*
X127325595Y-80207142D01*
X127277976Y-80254761D01*
X127182738Y-80302380D01*
X126897023Y-80302380D01*
X126801785Y-80254761D01*
X126754166Y-80207142D01*
D11*
%TO.C,IC2*%
X110510238Y-69074523D02*
X110510238Y-67804523D01*
X111840714Y-68953571D02*
X111780238Y-69014047D01*
X111598809Y-69074523D01*
X111477857Y-69074523D01*
X111296428Y-69014047D01*
X111175476Y-68893095D01*
X111115000Y-68772142D01*
X111054523Y-68530238D01*
X111054523Y-68348809D01*
X111115000Y-68106904D01*
X111175476Y-67985952D01*
X111296428Y-67865000D01*
X111477857Y-67804523D01*
X111598809Y-67804523D01*
X111780238Y-67865000D01*
X111840714Y-67925476D01*
X112324523Y-67925476D02*
X112385000Y-67865000D01*
X112505952Y-67804523D01*
X112808333Y-67804523D01*
X112929285Y-67865000D01*
X112989761Y-67925476D01*
X113050238Y-68046428D01*
X113050238Y-68167380D01*
X112989761Y-68348809D01*
X112264047Y-69074523D01*
X113050238Y-69074523D01*
D10*
%TO.C,J1*%
X142492380Y-71833333D02*
X143206666Y-71833333D01*
X143349523Y-71880952D01*
X143444761Y-71976190D01*
X143492380Y-72119047D01*
X143492380Y-72214285D01*
X143492380Y-70833333D02*
X143492380Y-71404761D01*
X143492380Y-71119047D02*
X142492380Y-71119047D01*
X142635238Y-71214285D01*
X142730476Y-71309523D01*
X142778095Y-71404761D01*
%TO.C,C1*%
X128537142Y-58166666D02*
X128584761Y-58214285D01*
X128632380Y-58357142D01*
X128632380Y-58452380D01*
X128584761Y-58595238D01*
X128489523Y-58690476D01*
X128394285Y-58738095D01*
X128203809Y-58785714D01*
X128060952Y-58785714D01*
X127870476Y-58738095D01*
X127775238Y-58690476D01*
X127680000Y-58595238D01*
X127632380Y-58452380D01*
X127632380Y-58357142D01*
X127680000Y-58214285D01*
X127727619Y-58166666D01*
X128632380Y-57214285D02*
X128632380Y-57785714D01*
X128632380Y-57500000D02*
X127632380Y-57500000D01*
X127775238Y-57595238D01*
X127870476Y-57690476D01*
X127918095Y-57785714D01*
%TO.C,J2*%
X80912380Y-61583333D02*
X81626666Y-61583333D01*
X81769523Y-61630952D01*
X81864761Y-61726190D01*
X81912380Y-61869047D01*
X81912380Y-61964285D01*
X81007619Y-61154761D02*
X80960000Y-61107142D01*
X80912380Y-61011904D01*
X80912380Y-60773809D01*
X80960000Y-60678571D01*
X81007619Y-60630952D01*
X81102857Y-60583333D01*
X81198095Y-60583333D01*
X81340952Y-60630952D01*
X81912380Y-61202380D01*
X81912380Y-60583333D01*
%TO.C,R2*%
X96745833Y-69627380D02*
X96412500Y-69151190D01*
X96174404Y-69627380D02*
X96174404Y-68627380D01*
X96555357Y-68627380D01*
X96650595Y-68675000D01*
X96698214Y-68722619D01*
X96745833Y-68817857D01*
X96745833Y-68960714D01*
X96698214Y-69055952D01*
X96650595Y-69103571D01*
X96555357Y-69151190D01*
X96174404Y-69151190D01*
X97126785Y-68722619D02*
X97174404Y-68675000D01*
X97269642Y-68627380D01*
X97507738Y-68627380D01*
X97602976Y-68675000D01*
X97650595Y-68722619D01*
X97698214Y-68817857D01*
X97698214Y-68913095D01*
X97650595Y-69055952D01*
X97079166Y-69627380D01*
X97698214Y-69627380D01*
D11*
%TO.C,IC1*%
X133574523Y-56739761D02*
X132304523Y-56739761D01*
X133453571Y-55409285D02*
X133514047Y-55469761D01*
X133574523Y-55651190D01*
X133574523Y-55772142D01*
X133514047Y-55953571D01*
X133393095Y-56074523D01*
X133272142Y-56135000D01*
X133030238Y-56195476D01*
X132848809Y-56195476D01*
X132606904Y-56135000D01*
X132485952Y-56074523D01*
X132365000Y-55953571D01*
X132304523Y-55772142D01*
X132304523Y-55651190D01*
X132365000Y-55469761D01*
X132425476Y-55409285D01*
X133574523Y-54199761D02*
X133574523Y-54925476D01*
X133574523Y-54562619D02*
X132304523Y-54562619D01*
X132485952Y-54683571D01*
X132606904Y-54804523D01*
X132667380Y-54925476D01*
D12*
%TO.C,IC10*%
X110850000Y-41750000D02*
X110375000Y-42250000D01*
X110850000Y-41750000D02*
X113125000Y-41750000D01*
X110375000Y-45750000D02*
X110375000Y-42250000D01*
X113125000Y-41750000D02*
X113125000Y-45750000D01*
X113125000Y-45750000D02*
X110375000Y-45750000D01*
D13*
%TO.C,S2*%
X125900000Y-69350000D02*
X129600000Y-69350000D01*
D12*
X127650000Y-67100000D02*
X127650000Y-67100000D01*
D13*
X129600000Y-75450000D02*
X125900000Y-75450000D01*
X129600000Y-69350000D02*
X129600000Y-75450000D01*
D12*
X127650000Y-67100000D02*
X127650000Y-67100000D01*
X127650000Y-67200000D02*
X127650000Y-67200000D01*
D13*
X125900000Y-75450000D02*
X125900000Y-69350000D01*
D12*
X127650000Y-67100000D02*
G75*
G03*
X127650000Y-67200000I0J-50000D01*
G01*
X127650000Y-67200000D02*
G75*
G03*
X127650000Y-67100000I0J50000D01*
G01*
X127650000Y-67100000D02*
G75*
G03*
X127650000Y-67200000I0J-50000D01*
G01*
%TO.C,IC12*%
X133125000Y-45750000D02*
X130375000Y-45750000D01*
X130850000Y-41750000D02*
X133125000Y-41750000D01*
X130850000Y-41750000D02*
X130375000Y-42250000D01*
X133125000Y-41750000D02*
X133125000Y-45750000D01*
X130375000Y-45750000D02*
X130375000Y-42250000D01*
D13*
%TO.C,J4*%
X104400000Y-99360000D02*
X104400000Y-101900000D01*
X104400000Y-101900000D02*
X119100000Y-101900000D01*
X119100000Y-101900000D02*
X119100000Y-99360000D01*
X104400000Y-88900000D02*
X104400000Y-95900000D01*
D12*
X114050000Y-86200000D02*
X114050000Y-86200000D01*
X113850000Y-86200000D02*
X113850000Y-86200000D01*
D13*
X119100000Y-95900000D02*
X119100000Y-88900000D01*
D12*
X113850000Y-86200000D02*
G75*
G03*
X114050000Y-86200000I100000J0D01*
G01*
X114050000Y-86200000D02*
G75*
G03*
X113850000Y-86200000I-100000J0D01*
G01*
%TO.C,IC16*%
X168250000Y-70600000D02*
X168250000Y-72875000D01*
X164250000Y-70125000D02*
X167750000Y-70125000D01*
X164250000Y-72875000D02*
X164250000Y-70125000D01*
X168250000Y-72875000D02*
X164250000Y-72875000D01*
X168250000Y-70600000D02*
X167750000Y-70125000D01*
%TO.C,IC15*%
X168250000Y-63125000D02*
X164250000Y-63125000D01*
X164250000Y-60375000D02*
X167750000Y-60375000D01*
X168250000Y-60850000D02*
X168250000Y-63125000D01*
X164250000Y-63125000D02*
X164250000Y-60375000D01*
X168250000Y-60850000D02*
X167750000Y-60375000D01*
D14*
%TO.C,C2*%
X138765000Y-58311252D02*
X138765000Y-57788748D01*
X140235000Y-58311252D02*
X140235000Y-57788748D01*
D12*
%TO.C,IC6*%
X70375000Y-45750000D02*
X70375000Y-42250000D01*
X70850000Y-41750000D02*
X73125000Y-41750000D01*
X73125000Y-41750000D02*
X73125000Y-45750000D01*
X73125000Y-45750000D02*
X70375000Y-45750000D01*
X70850000Y-41750000D02*
X70375000Y-42250000D01*
%TO.C,S1*%
X95650000Y-53200000D02*
X95650000Y-53200000D01*
D13*
X97600000Y-61550000D02*
X93900000Y-61550000D01*
D12*
X95650000Y-53300000D02*
X95650000Y-53300000D01*
D13*
X97600000Y-55450000D02*
X97600000Y-61550000D01*
X93900000Y-61550000D02*
X93900000Y-55450000D01*
D12*
X95650000Y-53200000D02*
X95650000Y-53200000D01*
D13*
X93900000Y-55450000D02*
X97600000Y-55450000D01*
D12*
X95650000Y-53300000D02*
G75*
G03*
X95650000Y-53200000I0J50000D01*
G01*
X95650000Y-53200000D02*
G75*
G03*
X95650000Y-53300000I0J-50000D01*
G01*
X95650000Y-53200000D02*
G75*
G03*
X95650000Y-53300000I0J-50000D01*
G01*
%TO.C,IC9*%
X100850000Y-41750000D02*
X103125000Y-41750000D01*
X103125000Y-41750000D02*
X103125000Y-45750000D01*
X100850000Y-41750000D02*
X100375000Y-42250000D01*
X103125000Y-45750000D02*
X100375000Y-45750000D01*
X100375000Y-45750000D02*
X100375000Y-42250000D01*
%TO.C,IC7*%
X83125000Y-45750000D02*
X80375000Y-45750000D01*
X80850000Y-41750000D02*
X80375000Y-42250000D01*
X80850000Y-41750000D02*
X83125000Y-41750000D01*
X83125000Y-41750000D02*
X83125000Y-45750000D01*
X80375000Y-45750000D02*
X80375000Y-42250000D01*
%TO.C,IC3*%
X59250000Y-82875000D02*
X55750000Y-82875000D01*
X55250000Y-80125000D02*
X59250000Y-80125000D01*
X55250000Y-82400000D02*
X55250000Y-80125000D01*
X55250000Y-82400000D02*
X55750000Y-82875000D01*
X59250000Y-80125000D02*
X59250000Y-82875000D01*
D14*
%TO.C,R1*%
X98015000Y-92522936D02*
X98015000Y-92977064D01*
X99485000Y-92522936D02*
X99485000Y-92977064D01*
%TO.C,R3*%
X126360436Y-80765000D02*
X126814564Y-80765000D01*
X126360436Y-82235000D02*
X126814564Y-82235000D01*
D12*
%TO.C,IC5*%
X59250000Y-62875000D02*
X55750000Y-62875000D01*
X55250000Y-62400000D02*
X55750000Y-62875000D01*
X55250000Y-60125000D02*
X59250000Y-60125000D01*
X59250000Y-60125000D02*
X59250000Y-62875000D01*
X55250000Y-62400000D02*
X55250000Y-60125000D01*
D13*
%TO.C,IC2*%
X101750000Y-64950000D02*
X101750000Y-64950000D01*
D12*
X102750000Y-64300000D02*
X102750000Y-57500000D01*
X120750000Y-83000000D02*
X120750000Y-82300000D01*
X102750000Y-57500000D02*
X120750000Y-57500000D01*
X120750000Y-57500000D02*
X120750000Y-64300000D01*
D13*
X101650000Y-64950000D02*
X101650000Y-64950000D01*
D12*
X119385000Y-83000000D02*
X120750000Y-83000000D01*
X102750000Y-82300000D02*
X102750000Y-83000000D01*
X102750000Y-83000000D02*
X103985000Y-83000000D01*
D13*
X101750000Y-64950000D02*
G75*
G03*
X101650000Y-64950000I-50000J0D01*
G01*
X101650000Y-64950000D02*
G75*
G03*
X101750000Y-64950000I50000J0D01*
G01*
D14*
%TO.C,J1*%
X135369200Y-79132700D02*
X141459371Y-79132700D01*
X135369200Y-76230440D02*
X135369200Y-79132700D01*
X135369200Y-71230440D02*
X135369200Y-71769560D01*
X135369200Y-73730440D02*
X135369200Y-74269560D01*
X145630800Y-77215559D02*
X145630800Y-65784441D01*
X135369200Y-63867300D02*
X135369200Y-66769560D01*
X135369200Y-68730440D02*
X135369200Y-69269560D01*
X141459371Y-63867300D02*
X135369200Y-63867300D01*
D12*
%TO.C,IC11*%
X120375000Y-45750000D02*
X120375000Y-42250000D01*
X120850000Y-41750000D02*
X123125000Y-41750000D01*
X120850000Y-41750000D02*
X120375000Y-42250000D01*
X123125000Y-41750000D02*
X123125000Y-45750000D01*
X123125000Y-45750000D02*
X120375000Y-45750000D01*
D14*
%TO.C,C1*%
X127235000Y-57738748D02*
X127235000Y-58261252D01*
X125765000Y-57738748D02*
X125765000Y-58261252D01*
%TO.C,J2*%
X89130800Y-68882700D02*
X89130800Y-65980440D01*
X89130800Y-61519560D02*
X89130800Y-60980440D01*
X89130800Y-53617300D02*
X83040629Y-53617300D01*
X89130800Y-59019560D02*
X89130800Y-58480440D01*
X89130800Y-56519560D02*
X89130800Y-53617300D01*
X78869200Y-55534441D02*
X78869200Y-66965559D01*
X83040629Y-68882700D02*
X89130800Y-68882700D01*
X89130800Y-64019560D02*
X89130800Y-63480440D01*
D12*
%TO.C,IC17*%
X164250000Y-80125000D02*
X167750000Y-80125000D01*
X168250000Y-80600000D02*
X167750000Y-80125000D01*
X168250000Y-82875000D02*
X164250000Y-82875000D01*
X164250000Y-82875000D02*
X164250000Y-80125000D01*
X168250000Y-80600000D02*
X168250000Y-82875000D01*
D14*
%TO.C,R2*%
X97139564Y-68260000D02*
X96685436Y-68260000D01*
X97139564Y-66790000D02*
X96685436Y-66790000D01*
D12*
%TO.C,IC13*%
X140375000Y-45750000D02*
X140375000Y-42250000D01*
X140850000Y-41750000D02*
X140375000Y-42250000D01*
X143125000Y-45750000D02*
X140375000Y-45750000D01*
X143125000Y-41750000D02*
X143125000Y-45750000D01*
X140850000Y-41750000D02*
X143125000Y-41750000D01*
%TO.C,IC1*%
X129750000Y-57250000D02*
X129750000Y-53750000D01*
X136125000Y-51475000D02*
X136125000Y-52725000D01*
X129750000Y-53750000D02*
X136250000Y-53750000D01*
X136250000Y-57250000D02*
X129750000Y-57250000D01*
X136250000Y-53750000D02*
X136250000Y-57250000D01*
%TO.C,IC4*%
X59250000Y-70125000D02*
X59250000Y-72875000D01*
X55250000Y-70125000D02*
X59250000Y-70125000D01*
X55250000Y-72400000D02*
X55750000Y-72875000D01*
X59250000Y-72875000D02*
X55750000Y-72875000D01*
X55250000Y-72400000D02*
X55250000Y-70125000D01*
%TO.C,IC8*%
X90850000Y-41750000D02*
X93125000Y-41750000D01*
X93125000Y-41750000D02*
X93125000Y-45750000D01*
X90375000Y-45750000D02*
X90375000Y-42250000D01*
X90850000Y-41750000D02*
X90375000Y-42250000D01*
X93125000Y-45750000D02*
X90375000Y-45750000D01*
%TO.C,IC14*%
X153125000Y-41750000D02*
X153125000Y-45750000D01*
X150375000Y-45750000D02*
X150375000Y-42250000D01*
X150850000Y-41750000D02*
X153125000Y-41750000D01*
X153125000Y-45750000D02*
X150375000Y-45750000D01*
X150850000Y-41750000D02*
X150375000Y-42250000D01*
%TD*%
M02*
